<?xml version="1.0" encoding="UTF-8"?>
<svg xmlns="http://www.w3.org/2000/svg" viewBox="0 0 680 197" width="680" height="197">
<path d="M296.55 0.08C299.86 0.08 303.17 0.08 306.47 0.08C307.53 1.27 309.58 1.52 311.03 2.25C314.67 4.08 317.87 7.4 319.73 10.99C326.65 24.35 316.76 40.82 301.75 40.95C286.53 41.08 276.55 24.64 283.35 11.11C284.92 7.99 287.49 5.1 290.44 3.22C292.22 2.08 295.27 1.59 296.55 0.08ZM0.08 140.92C0.08 134.44 0.08 127.97 0.08 121.49C1.65 119.14 1.52 115.15 2.2 112.38C3.37 107.64 5.12 102.88 7.28 98.5C18.49 75.78 43.36 61.57 68.64 69.18C73.98 70.78 79.24 73.67 83.55 77.22C85.12 78.51 86.47 80.52 88.25 81.4C88.55 78.02 88.84 74.63 89.14 71.25C100.21 71.25 111.27 71.25 122.34 71.25C122.42 111.42 122.49 151.58 122.57 191.75C111.38 191.75 100.18 191.75 88.99 191.75C88.74 188.35 88.5 184.95 88.25 181.55C86.59 182.52 85.45 184.42 83.96 185.71C79.83 189.29 74.85 192.17 69.64 193.83C47.13 200.98 23.57 190.4 11.14 171.12C7.04 164.77 4.33 157.68 2.3 150.43C1.51 147.62 1.8 143.18 0.08 140.92ZM679.92 106.06C679.92 134.7 679.92 163.35 679.92 191.99C668.5 191.91 657.08 191.83 645.66 191.75C644.06 184.7 645.32 176.02 645.32 168.75C645.32 152.11 645.78 135.38 645.18 118.75C644.82 108.76 642.18 95.18 629.75 94.89C616.54 94.59 612.76 107.28 611.28 118.1C610.4 124.52 610.82 131.28 610.82 137.75C610.82 148.92 610.82 160.08 610.82 171.25C610.82 177.04 612.06 186.43 610.5 191.75C599.16 191.75 587.81 191.75 576.47 191.75C574.97 186.5 576.16 175.18 576.16 169.25C576.16 152.46 576.79 135.53 576.11 118.75C575.69 108.58 572.8 95.11 560.25 94.89C546.96 94.66 542.73 107.59 541.98 118.75C540.83 135.62 541.76 152.84 541.76 169.75C541.76 175.89 543.13 186.15 541.41 191.75C530.07 191.75 518.73 191.75 507.39 191.75C507.48 151.58 507.56 111.42 507.64 71.25C518.84 71.27 530.05 71.28 541.25 71.3C541.55 74.61 541.86 77.93 542.16 81.25C543.94 80.51 545.52 77.65 547.05 76.31C549.86 73.85 553.1 71.77 556.5 70.28C568.81 64.88 584.62 66.36 595.55 74.22C599.92 77.36 602.35 82.03 606.25 85.42C607.82 84.3 608.85 82.38 610.18 80.92C612.88 77.97 616.02 75.27 619.46 73.24C635.08 64.02 659.22 64.29 670.82 79.91C674.2 84.47 676.42 89.95 677.77 95.44C678.56 98.7 678.25 103.23 679.92 106.06ZM182.75 71.11C190.25 81.33 197.74 91.54 205.23 101.75C211.63 91.54 218.02 81.33 224.42 71.11C238.27 71.11 252.13 71.11 265.98 71.11C265.25 75.23 257.18 83.35 254.33 87.07C247.19 96.42 239.84 105.62 232.73 114.99C229.96 118.64 226.27 122.18 224.18 126.25C240.84 148.17 257.49 170.1 274.15 192.02C260.18 192.02 246.22 192.02 232.25 192.02C221.92 178.23 211.58 164.43 201.25 150.64C192.08 164.43 182.92 178.23 173.75 192.02C159.63 192.02 145.5 192.02 131.38 192.02C148.28 170.1 165.19 148.17 182.09 126.25C168.58 107.87 155.06 89.49 141.55 71.11C155.28 71.11 169.02 71.11 182.75 71.11ZM318.87 71.12C318.87 111.42 318.87 151.72 318.87 192.02C307.33 192.02 295.78 192.02 284.24 192.02C284.24 151.72 284.24 111.42 284.24 71.12C295.78 71.12 307.33 71.12 318.87 71.12ZM58.78 98.17C23.26 104.22 29.35 170.81 68.25 164.94C73.52 164.15 78.68 160.88 82.27 157.01C101.41 136.31 90.27 92.81 58.78 98.17Z" fill="#000000" fill-rule="evenodd" stroke="#000000" stroke-width="0.25" stroke-linejoin="round"/>
<path d="M424.06 196.92C417.06 196.92 410.07 196.92 403.08 196.92C400.4 195.11 392.92 194.88 389.35 193.81C379.22 190.81 369.05 184.73 362.29 176.45C345.56 155.94 344.8 130.13 344.8 104.75C344.8 87.58 344.8 70.42 344.8 53.25C344.8 42.58 344.8 31.92 344.8 21.25C344.8 16.7 343.81 10.73 345.25 6.43C357.08 6.52 368.92 6.61 380.75 6.69C381.53 9.98 381.02 13.86 381.02 17.25C381.02 24.75 381.02 32.25 381.02 39.75C381.02 57.25 381.02 74.75 381.02 92.25C381.02 103.21 380.49 114.34 381.64 125.25C383.39 141.83 387.81 161.09 406.84 164.81C410.57 165.54 414.98 165.47 418.75 165.15C435.1 163.74 440.78 149.79 444.35 136.2C447.39 124.65 446.29 111.61 446.29 99.75C446.29 79.58 446.29 59.42 446.29 39.25C446.29 31.42 446.29 23.58 446.29 15.75C446.29 12.9 445.4 8.49 447.25 6.26C458.92 6.37 470.58 6.48 482.25 6.59C483.79 8.87 482.81 18.56 482.81 21.75C482.81 35.42 482.81 49.08 482.81 62.75C482.81 75.92 482.81 89.08 482.81 102.25C482.81 131.43 481.96 163.73 457.52 183.78C450.91 189.2 442.73 192.55 434.58 194.78C431.28 195.67 427.02 195.27 424.06 196.92Z" fill="#f7941e" fill-rule="evenodd" stroke="#f7941e" stroke-width="0.25" stroke-linejoin="round"/>
</svg>