<?xml version="1.0" encoding="UTF-8"?>
<svg xmlns="http://www.w3.org/2000/svg" viewBox="0 0 565 353" width="565" height="353">
<path d="M0.13 0.13C188.38 0.13 376.63 0.13 564.88 0.13C564.88 117.71 564.88 235.29 564.88 352.88C376.63 352.88 188.38 352.88 0.13 352.88C0.13 235.29 0.13 117.71 0.13 0.13ZM84.25 148.75C80.21 140.1 66.94 138.28 58.75 139.59C42.22 142.25 29.85 155.46 28.4 172.25C27.23 185.81 34.71 197.96 48.43 200.76C51.4 201.36 54.73 200.97 57.75 200.97C62.74 200.97 75.58 198.29 77.91 193.25C75.19 189.45 72.47 185.64 69.75 181.84C66.62 183.04 64.27 185.66 60.77 186.59C50.22 189.38 43.27 181.8 43.91 171.75C44.67 159.72 55.71 149.57 68.12 154.17C70.7 155.13 72.18 157.18 74.25 158.78C77.58 155.44 80.92 152.09 84.25 148.75ZM316.49 145.75C313.31 141.91 306.93 140.41 302.23 139.64C288.08 137.32 271.92 144.09 271.45 160.25C271.18 169.3 278.3 174.47 286.24 176.53C289.3 177.32 297.66 178.09 297.25 182.62C296.96 185.8 293.41 186.74 290.75 186.9C286.53 187.15 282.07 186.49 278.3 184.48C276.6 183.57 275.4 181.99 273.75 181.13C271.7 182.15 264.88 190.67 264.56 192.75C274.38 206.3 308.94 203.83 312.82 184.66C314.74 175.22 310.73 167.32 301.53 164.24C298.09 163.09 287.41 162.38 287.24 157.68C287.13 154.79 290.48 153.69 292.75 153.44C298.69 152.79 302.57 155.2 307.75 157.19C310.54 155.47 316.01 149 316.49 145.75ZM476.99 148.75C472.99 141.66 463.87 139.17 456.25 139.16C437.89 139.15 422.41 153.98 420.98 172.25C419.92 185.62 427.56 197.95 441.12 200.7C444.22 201.33 447.6 201 450.75 200.99C455.93 200.98 467.22 198.26 470.34 193.75C469.9 190.24 465.31 184.33 462.75 181.86C460.02 182.54 458.01 185.03 455.22 185.94C446.17 188.87 437.13 184.9 436.76 174.75C436.29 161.94 445.45 150.29 459.33 153.83C462.72 154.7 464.13 156.69 466.75 158.59C469.09 157.68 475.95 151.02 476.99 148.75ZM190.81 178.25C191.89 176.49 193.85 175.92 195.52 174.76C197.86 173.14 200.65 169.63 201.72 166.99C202.72 164.56 203.24 161.86 203.49 159.25C204.53 148.79 196.26 141.59 186.59 140.23C182.6 139.68 178.27 140.13 174.25 140.13C169.63 140.13 164.84 139.81 160.25 140.29C157.76 144.04 157.85 150.39 157.15 154.77C155.55 164.86 153.85 175.09 151.77 185.1C150.94 189.08 148.63 196.23 150.14 200.01C154.84 200.01 159.55 200.01 164.25 200.01C165.58 193.47 166.92 186.94 168.25 180.41C170.55 180.41 172.84 180.41 175.14 180.41C177.84 186.95 180.55 193.49 183.25 200.03C188.31 200.03 193.37 200.03 198.42 200.03C198.74 193.41 192.28 185.01 190.81 178.25ZM266.54 140.75C263.12 138.84 251.63 140.13 247.25 140.13C240.42 140.13 233.58 140.12 226.75 140.13C223.69 140.13 219.78 139.5 217.11 141.36C213.43 143.93 212.69 151.71 212.76 155.75C214.54 155.53 215.88 154.18 217.75 153.94C226.59 152.8 236.33 153.94 245.25 153.94C250.05 153.94 257.12 155.23 261.61 153.33C265.35 151.76 266.79 144.21 266.54 140.75ZM374.13 140.75C370.93 138.83 364.02 140.12 360.25 140.12C348.33 140.12 335.58 138.83 323.75 140.26C321.68 143.01 320.85 149.84 321.25 153.27C325.8 156.01 333.2 152.67 338.25 154.25C335.92 169.5 333.58 184.75 331.25 200C336.1 200 340.96 200 345.81 200C348.75 184.65 351.68 169.31 354.61 153.97C360.33 153.97 366.04 153.97 371.75 153.97C372.54 149.56 373.33 145.16 374.13 140.75ZM499.75 140.17C494.92 140.17 490.08 140.17 485.25 140.17C483.98 144.89 483.67 149.69 482.73 154.46C480.96 163.47 479.3 172.51 477.78 181.6C476.85 187.15 474.27 194.49 475.2 200.01C479.99 200.01 484.78 200.01 489.58 200.01C491.61 194.07 490.19 182.14 496.25 179.12C500.76 186.08 505.26 193.04 509.77 200.01C515.43 200.01 521.09 200.01 526.75 200.01C520.73 189.42 514.72 178.84 508.7 168.25C517.73 159.08 526.76 149.92 535.78 140.75C534.1 139.26 529.5 140.12 527.25 140.12C524.74 140.12 520.93 139.4 518.58 140.32C517.5 140.75 516.84 141.99 515.99 142.74C511.46 146.76 501.83 158.45 497.25 160.49C498.08 153.72 498.92 146.94 499.75 140.17ZM119.75 141.12C116.16 143.1 113.9 149.42 111.5 152.75C103.89 163.34 96.76 174.45 89.73 185.48C87.73 188.62 81.18 196.57 81.19 199.75C83.59 200.37 96.55 200.79 98.45 199.7C100.48 198.53 101.79 194.73 103.11 192.85C106.32 188.27 109.62 183.62 112.64 178.9C113.84 177.01 114.55 174.98 116.25 173.44C118.56 174.6 118.82 178.02 119.98 180.25C123.16 186.33 126.19 193.51 128.25 200.07C133.53 200.07 138.81 200.07 144.09 200.07C144.54 196.96 140.3 189.46 138.93 186.27C134.32 175.56 129.66 164.76 125.39 153.84C124.31 151.06 121.76 142.69 119.75 141.12ZM395.26 141.25C390.96 145.43 388.15 151.65 384.86 156.62C379.08 165.34 373.44 174.18 367.56 182.82C364.98 186.6 357.27 195.97 357.08 200.02C362.81 200.02 368.53 200.02 374.25 200.02C378.62 194.01 382.56 187.61 386.65 181.39C388.32 178.84 390.02 174.88 392.75 173.45C396.58 182.31 400.42 191.17 404.25 200.03C409.42 200.03 414.58 200.03 419.75 200.03C420.48 195.8 416.35 190.69 415.03 186.73C411.34 175.58 405.76 164.85 401.28 153.98C399.7 150.13 398.6 143.85 395.26 141.25ZM170.98 166.25C169.88 163.03 171.8 156.86 173.25 153.81C177.75 152.62 188.15 152.36 187.83 159.23C187.48 166.67 175.86 168.96 170.98 166.25ZM262.02 163.75C258.6 162.79 254.33 163.36 250.75 163.36C242.92 163.35 235.08 163.31 227.25 163.36C223.23 163.38 217.56 162.36 213.86 164.11C209.64 166.11 208.01 175.07 209.25 179.13C210.35 178.61 211.29 177.61 212.44 177.24C215.75 176.16 220.3 176.94 223.75 176.94C231.25 176.93 238.75 176.9 246.25 176.9C249.39 176.9 253.02 177.41 256.1 176.77C261.23 175.7 263.19 168.16 262.02 163.75ZM257.75 186.89C254.37 185.71 249.83 186.45 246.25 186.45C238.42 186.45 230.58 186.45 222.75 186.45C218.92 186.45 213.43 185.45 209.87 187.14C205.96 188.99 204.75 195.92 205.25 199.65C209.41 201.07 215.34 200.05 219.75 200.05C227.42 200.05 235.08 200.05 242.75 200.05C245.88 200.05 249.59 200.59 252.64 199.82C256.97 198.73 259.63 190.55 257.75 186.89Z" fill="#ffffff" fill-rule="evenodd" stroke="#ffffff" stroke-width="0.25" stroke-linejoin="round"/>
<path d="M316.49 145.75C316.01 149 310.54 155.47 307.75 157.19C302.57 155.2 298.69 152.79 292.75 153.44C290.48 153.69 287.13 154.79 287.24 157.68C287.41 162.38 298.09 163.09 301.53 164.24C310.73 167.32 314.74 175.22 312.82 184.66C308.94 203.83 274.38 206.3 264.56 192.75C264.88 190.67 271.7 182.15 273.75 181.13C275.4 181.99 276.6 183.57 278.3 184.48C282.07 186.49 286.53 187.15 290.75 186.9C293.41 186.74 296.96 185.8 297.25 182.62C297.66 178.09 289.3 177.32 286.24 176.53C278.3 174.47 271.18 169.3 271.45 160.25C271.92 144.09 288.08 137.32 302.23 139.64C306.93 140.41 313.31 141.91 316.49 145.75ZM476.99 148.75C475.95 151.02 469.09 157.68 466.75 158.59C464.13 156.69 462.72 154.7 459.33 153.83C445.45 150.29 436.29 161.94 436.76 174.75C437.13 184.9 446.17 188.87 455.22 185.94C458.01 185.03 460.02 182.54 462.75 181.86C465.31 184.33 469.9 190.24 470.34 193.75C467.22 198.26 455.93 200.98 450.75 200.99C447.6 201 444.22 201.33 441.12 200.7C427.56 197.95 419.92 185.62 420.98 172.25C422.41 153.98 437.89 139.15 456.25 139.16C463.87 139.17 472.99 141.66 476.99 148.75ZM374.13 140.75C373.33 145.16 372.54 149.56 371.75 153.97C366.04 153.97 360.33 153.97 354.61 153.97C351.68 169.31 348.75 184.65 345.81 200C340.96 200 336.1 200 331.25 200C333.58 184.75 335.92 169.5 338.25 154.25C333.2 152.67 325.8 156.01 321.25 153.27C320.85 149.84 321.68 143.01 323.75 140.26C335.58 138.83 348.33 140.12 360.25 140.12C364.02 140.12 370.93 138.83 374.13 140.75ZM499.75 140.17C498.92 146.94 498.08 153.72 497.25 160.49C501.83 158.45 511.46 146.76 515.99 142.74C516.84 141.99 517.5 140.75 518.58 140.32C520.93 139.4 524.74 140.12 527.25 140.12C529.5 140.12 534.1 139.26 535.78 140.75C526.76 149.92 517.73 159.08 508.7 168.25C514.72 178.84 520.73 189.42 526.75 200.01C521.09 200.01 515.43 200.01 509.77 200.01C505.26 193.04 500.76 186.08 496.25 179.12C490.19 182.14 491.61 194.07 489.58 200.01C484.78 200.01 479.99 200.01 475.2 200.01C474.27 194.49 476.85 187.15 477.78 181.6C479.3 172.51 480.96 163.47 482.73 154.46C483.67 149.69 483.98 144.89 485.25 140.17C490.08 140.17 494.92 140.17 499.75 140.17ZM395.26 141.25C398.6 143.85 399.7 150.13 401.28 153.98C405.76 164.85 411.34 175.58 415.03 186.73C416.35 190.69 420.48 195.8 419.75 200.03C414.58 200.03 409.42 200.03 404.25 200.03C400.42 191.17 396.58 182.31 392.75 173.45C390.02 174.88 388.32 178.84 386.65 181.39C382.56 187.61 378.62 194.01 374.25 200.02C368.53 200.02 362.81 200.02 357.08 200.02C357.27 195.97 364.98 186.6 367.56 182.82C373.44 174.18 379.08 165.34 384.86 156.62C388.15 151.65 390.96 145.43 395.26 141.25Z" fill="#05406c" fill-rule="evenodd" stroke="#05406c" stroke-width="0.25" stroke-linejoin="round"/>
<path d="M84.25 148.75C80.92 152.09 77.58 155.44 74.25 158.78C72.18 157.18 70.7 155.13 68.12 154.17C55.71 149.57 44.67 159.72 43.91 171.75C43.27 181.8 50.22 189.38 60.77 186.59C64.27 185.66 66.62 183.04 69.75 181.84C72.47 185.64 75.19 189.45 77.91 193.25C75.58 198.29 62.74 200.97 57.75 200.97C54.73 200.97 51.4 201.36 48.43 200.76C34.71 197.96 27.23 185.81 28.4 172.25C29.85 155.46 42.22 142.25 58.75 139.59C66.94 138.28 80.21 140.1 84.25 148.75ZM190.81 178.25C192.28 185.01 198.74 193.41 198.42 200.03C193.37 200.03 188.31 200.03 183.25 200.03C180.55 193.49 177.84 186.95 175.14 180.41C172.84 180.41 170.55 180.41 168.25 180.41C166.92 186.94 165.58 193.47 164.25 200.01C159.55 200.01 154.84 200.01 150.14 200.01C148.63 196.23 150.94 189.08 151.77 185.1C153.85 175.09 155.55 164.86 157.15 154.77C157.85 150.39 157.76 144.04 160.25 140.29C164.84 139.81 169.63 140.13 174.25 140.13C178.27 140.13 182.6 139.68 186.59 140.23C196.26 141.59 204.53 148.79 203.49 159.25C203.24 161.86 202.72 164.56 201.72 166.99C200.65 169.63 197.86 173.14 195.52 174.76C193.85 175.92 191.89 176.49 190.81 178.25ZM266.54 140.75C266.79 144.21 265.35 151.76 261.61 153.33C257.12 155.23 250.05 153.94 245.25 153.94C236.33 153.94 226.59 152.8 217.75 153.94C215.88 154.18 214.54 155.53 212.76 155.75C212.69 151.71 213.43 143.93 217.11 141.36C219.78 139.5 223.69 140.13 226.75 140.13C233.58 140.12 240.42 140.13 247.25 140.13C251.63 140.13 263.12 138.84 266.54 140.75ZM119.75 141.12C121.76 142.69 124.31 151.06 125.39 153.84C129.66 164.76 134.32 175.56 138.93 186.27C140.3 189.46 144.54 196.96 144.09 200.07C138.81 200.07 133.53 200.07 128.25 200.07C126.19 193.51 123.16 186.33 119.98 180.25C118.82 178.02 118.56 174.6 116.25 173.44C114.55 174.98 113.84 177.01 112.64 178.9C109.62 183.62 106.32 188.27 103.11 192.85C101.79 194.73 100.48 198.53 98.45 199.7C96.55 200.79 83.59 200.37 81.19 199.75C81.18 196.57 87.73 188.62 89.73 185.48C96.76 174.45 103.89 163.34 111.5 152.75C113.9 149.42 116.16 143.1 119.75 141.12ZM170.98 166.25C175.86 168.96 187.48 166.67 187.83 159.23C188.15 152.36 177.75 152.62 173.25 153.81C171.8 156.86 169.88 163.03 170.98 166.25ZM262.02 163.75C263.19 168.16 261.23 175.7 256.1 176.77C253.02 177.41 249.39 176.9 246.25 176.9C238.75 176.9 231.25 176.93 223.75 176.94C220.3 176.94 215.75 176.16 212.44 177.24C211.29 177.61 210.35 178.61 209.25 179.13C208.01 175.07 209.64 166.11 213.86 164.11C217.56 162.36 223.23 163.38 227.25 163.36C235.08 163.31 242.92 163.35 250.75 163.36C254.33 163.36 258.6 162.79 262.02 163.75ZM257.75 186.89C259.63 190.55 256.97 198.73 252.64 199.82C249.59 200.59 245.88 200.05 242.75 200.05C235.08 200.05 227.42 200.05 219.75 200.05C215.34 200.05 209.41 201.07 205.25 199.65C204.75 195.92 205.96 188.99 209.87 187.14C213.43 185.45 218.92 186.45 222.75 186.45C230.58 186.45 238.42 186.45 246.25 186.45C249.83 186.45 254.37 185.71 257.75 186.89Z" fill="#44bb7a" fill-rule="evenodd" stroke="#44bb7a" stroke-width="0.25" stroke-linejoin="round"/>
</svg>