<?xml version="1.0" encoding="UTF-8"?>
<svg xmlns="http://www.w3.org/2000/svg" viewBox="0 0 597 216" width="597" height="216">
<path d="M0.13 0.13C199.04 0.13 397.96 0.13 596.88 0.13C596.88 72.04 596.88 143.96 596.88 215.88C397.96 215.88 199.04 215.88 0.13 215.88C0.13 143.96 0.13 72.04 0.13 0.13ZM128.34 33.24C108.87 33.44 90.54 44.78 83.25 63.02C81.79 66.66 77.44 77.95 79.27 81.49C81.53 85.9 94.1 86.22 97.12 82.88C98.41 81.45 98.27 75.54 99.28 73.03C103.99 61.33 111.01 55.67 123.01 52.74C124.5 52.38 125.66 51.75 127.25 51.71C141.01 51.38 153.49 59.92 158.45 72.81C159.55 75.66 158.79 80.18 160.52 82.71C162.59 85.75 174.04 85.58 176.7 83.46C181.92 79.3 175.84 65.84 173.4 60.86C164.66 43.06 148.1 33.03 128.34 33.24ZM296.87 49.25C294.83 43.86 286.5 41.99 281.72 40.62C264.3 35.64 245.18 46.73 239.87 63.66C239.17 65.89 237.75 68.39 237.62 70.75C236.76 86.61 245.01 103.52 261.08 108.23C262.77 108.72 264.35 109.75 266.03 110.23C270.22 111.42 276.37 111.13 280.62 110.29C282.47 109.93 284.19 108.81 285.95 108.24C290.5 106.76 294.68 104.86 297.6 100.75C297.3 96.75 292.93 94.03 290.25 91.27C286.11 90.78 282.57 94.63 278.61 95.8C272.83 97.51 265.1 95.43 260.41 91.82C245.17 80.11 252.46 59.07 269.39 54.2C276.22 52.24 281.51 56.35 287.25 58.76C290.57 58.1 295.41 52.24 296.87 49.25ZM392.03 59.25C394.78 57.54 398.36 54.52 401.9 55.29C404.37 55.83 408.11 59.38 410.51 58.73C412.28 58.25 420.47 51.96 420.23 50.02C419.86 46.98 415.07 44.59 412.68 43.08C404.58 37.97 392.09 39.96 384.55 45.3C380.85 47.92 377.14 53.36 376.18 57.83C375.42 61.36 375.98 65.65 375.98 69.25C375.98 77.42 375.98 85.58 375.98 93.75C375.98 97.43 374.4 109.99 378.77 110.96C381.11 111.47 388.57 112.01 390.11 109.86C392.49 106.56 391.14 99.61 391.14 95.75C391.14 86.82 389.66 66.85 392.03 59.25ZM509.04 83.25C513.18 82.08 518.43 82.87 522.75 82.87C531.92 82.87 541.08 82.87 550.25 82.87C553.41 82.87 562.84 84.67 563.5 80.25C566.56 59.56 549.18 40.47 528.75 39.92C522.8 39.76 515.56 41.88 510.38 44.63C509.11 45.31 508.44 46.75 507.28 47.53C505.5 48.73 503.7 49.73 502.19 51.44C489.31 66.05 489.68 89.56 504.85 102.42C507 104.24 509.23 106.72 511.89 107.8C523.69 112.61 531 113.25 542.87 108.18C546.37 106.68 551.3 104.54 552.81 100.75C551.56 97.72 546.73 93.08 543.75 91.72C539.76 92.05 536.28 96.13 532.24 96.99C524.66 98.62 509.27 92.17 509.04 83.25ZM318.25 42.33C316.04 41.65 305.65 41.33 304.26 43.02C302.72 44.87 303.3 48.01 303.3 50.25C303.3 56.08 303.3 61.92 303.3 67.75C303.3 72.31 302.77 77.23 303.36 81.75C305.33 96.99 314.66 108.7 330.25 111.54C347.28 114.64 363.4 104.97 368.7 88.94C369.26 87.26 368.81 85.47 368.97 83.75C369.59 77.23 369.87 70.88 369.87 64.25C369.87 58.35 371.41 46.88 368.52 42.01C364.04 42.01 359.56 42.01 355.07 42.01C354.08 45.31 354.64 49.3 354.64 52.75C354.64 67.02 359.37 92.29 340.77 96.07C339.2 96.39 337.9 96.98 336.25 96.93C329.88 96.72 322.64 92.7 320.27 86.5C317.83 80.14 319 61.81 319 54.25C319 50.63 319.88 45.61 318.25 42.33ZM439.75 42.02C434.58 42.02 429.42 42.02 424.25 42.02C423.54 45.37 425.09 46.36 426.01 49.27C428.48 57.02 432.76 63.98 435.7 71.54C439.42 81.07 442.97 90.99 447.46 100.31C448.59 102.66 449.69 108.08 452.3 108.95C454.48 109.67 466.56 109.72 468.19 108.44C470.34 106.75 474.27 95.13 475.31 92.06C476.1 89.73 477.92 87.74 478.67 85.39C481.66 76.07 486.64 67.35 489.74 57.96C491.34 53.11 496.66 47.63 495.25 42.33C493.14 41.7 481.85 41.34 480.21 42.46C479.14 43.18 475.68 52.85 474.96 54.68C473.33 58.84 471.72 63.08 469.94 67.19C469.16 68.98 467.82 70.57 467.15 72.38C465.13 77.81 463.42 84.29 460.25 89.13C457.98 88.15 455.75 80.07 454.73 77.49C452.36 71.48 449.44 65.78 446.97 59.75C444.55 53.85 442.51 47.8 439.75 42.02ZM547.6 67.75C544.82 69.18 540.36 68.36 537.25 68.36C531.07 68.36 514.16 69.62 509.25 67.9C509.57 62.21 516.57 57.81 521.38 56.18C531.9 52.61 543.25 57.56 547.6 67.75ZM68.4 90.23C65.64 90.75 62.58 90.6 59.9 91.23C47.88 94.02 36.64 102.6 29.77 112.53C26.7 116.97 25.05 122.05 23.78 127.11C23.11 129.76 21.81 132.44 21.52 135.25C19.83 151.79 27.26 169.24 40.39 179.36C43.26 181.57 46.03 184.37 49.45 185.75C55.73 188.29 63.38 190.5 70.25 190.86C73.21 191.02 75.46 189.92 78.27 189.6C88.79 188.41 98.1 183.9 106.06 176.81C108.51 174.64 110.38 171.77 112.79 169.54C125.3 157.92 136.28 144.87 149.18 133.44C150.64 132.15 151.78 130.3 153.11 128.87C154.52 127.35 156.52 126.27 157.92 124.66C164.85 116.68 173.88 109.08 185.25 109.08C187.2 109.08 189.52 108.76 191.41 109.31C200.12 111.87 209.17 116.69 213.44 125.35C220.84 140.39 216.03 158.9 201.42 167.67C190.31 174.35 175.78 172.35 166.11 164.14C163.14 161.62 156.26 152.82 152.75 152.39C149.58 151.99 140.04 161.82 141.11 165.15C142.34 169 152.45 177.91 155.94 180.31C163.39 185.41 170.28 188.32 179.23 189.58C181.47 189.89 183.43 190.83 185.75 190.88C188.2 190.93 190.25 190.18 192.62 189.79C207.8 187.33 220.55 179.66 228.38 166.12C230.21 162.95 232.64 159.68 233.8 156.1C234.19 154.89 233.88 153.59 234.18 152.36C235.06 148.74 236.15 145.06 236.28 141.23C236.37 138.63 235.73 136.33 235.31 133.81C234.81 130.84 234.66 127.76 233.83 124.86C233.23 122.73 231.75 120.88 230.86 118.89C224.87 105.44 212.25 94.94 197.99 91.27C196.17 90.81 194.11 91.35 192.25 91.08C187.47 90.38 183.97 90.67 179.25 91.07C177.55 91.22 175.62 90.79 173.98 91.26C160.11 95.18 150.55 104.98 140.62 114.87C128.52 126.92 116.37 138.99 104.42 151.17C100.11 155.57 95.97 160.55 91.21 164.46C81.83 172.15 67.17 174.46 56.51 167.73C51.54 164.59 45.94 159.88 43.33 154.41C36.05 139.12 42.47 119.41 57.98 112.25C67.88 107.67 80.1 108.17 89.24 114.5C93.42 117.39 97.07 121.99 100.61 125.64C102.1 127.16 104.46 129.08 106.7 127.98C110.06 126.32 116.91 119.9 116.31 115.89C115.84 112.79 109.72 107.77 107.4 105.36C100.98 98.68 91.93 93.49 83.01 91.26C81.32 90.84 79.47 91.26 77.75 91.01C74.62 90.55 71.62 89.62 68.4 90.23ZM559.45 127.25C558.02 125.03 547.72 125.97 544.75 125.97C530.25 125.97 515.75 125.95 501.25 125.95C440.92 125.95 380.58 125.95 320.25 125.95C303.75 125.95 287.25 125.97 270.75 125.97C267.67 125.97 255.6 125.06 254.38 127.25C256.05 129.41 266.15 128.45 269.25 128.45C283.92 128.45 298.58 128.39 313.25 128.45C373.41 128.68 433.59 128.8 493.75 128.44C510.25 128.35 526.75 128.45 543.25 128.45C546.32 128.45 558.02 129.37 559.45 127.25ZM310.5 167.75C316.75 168.68 325.08 169 330.5 165.24C335.73 161.61 336.34 149.44 331.44 145.31C327.66 142.12 314.99 141.44 310.5 143.15C310.5 151.35 310.5 159.55 310.5 167.75ZM365.75 142.65C360.25 142.65 354.75 142.65 349.25 142.65C348.03 145.62 348.07 164.89 349.2 168C354.92 168 360.65 168 366.38 168C366.38 166.57 366.38 165.14 366.38 163.71C362.53 163.39 358.67 163.07 354.82 162.75C354.82 161.08 354.82 159.42 354.82 157.75C358.5 157.42 362.18 157.08 365.86 156.75C365.86 155.29 365.86 153.83 365.86 152.37C362.19 152.37 358.53 152.37 354.87 152.37C354.87 150.83 354.87 149.29 354.87 147.75C358.62 147.42 362.38 147.08 366.14 146.75C366.66 145.14 366.57 144.1 365.75 142.65ZM397.25 156.58C395.48 155.64 395.65 154.54 394.9 152.86C394.17 151.24 392.69 149.89 391.95 148.26C389.85 143.58 390.67 142.61 384.75 142.62C383.36 142.62 382.24 142.72 380.92 143.1C380.92 151.38 380.92 159.66 380.92 167.94C382.73 167.94 384.54 167.94 386.35 167.94C386.65 162.84 386.95 157.73 387.25 152.63C390.08 157.74 392.92 162.85 395.75 167.96C398.25 167.96 400.75 167.96 403.25 167.96C403.33 159.56 403.41 151.15 403.49 142.75C401.75 142.75 400 142.75 398.25 142.75C397.92 147.36 397.58 151.97 397.25 156.58ZM435.79 143.25C432.49 141.69 420.64 142.17 416.86 142.95C416.86 144.38 416.86 145.82 416.86 147.25C418.89 147.57 420.91 147.9 422.93 148.22C422.93 154.79 422.93 161.36 422.93 167.92C425.24 167.92 427.55 167.92 429.85 167.92C429.85 161.3 429.85 154.67 429.85 148.04C431.83 147.63 433.81 147.22 435.79 146.81C435.79 145.63 435.79 144.44 435.79 143.25ZM471.25 167.32C470.7 161.38 466.47 155.69 464.66 150.14C463.97 148.02 463.65 144.55 461.66 143.06C459.99 141.83 455.15 142.45 453.25 142.93C450.26 151.03 447.27 159.14 444.28 167.25C445.99 168.48 448.84 168.35 450.75 167.43C451.58 165.92 452.42 164.41 453.25 162.9C456.25 162.9 459.25 162.9 462.25 162.9C464.32 166.47 465.99 170.63 471.25 167.32ZM490.25 142.78C488.18 142.78 486.1 142.78 484.03 142.78C484.03 150.98 484.03 159.18 484.03 167.39C488.34 169.21 496.66 168.54 501.26 167.75C501.26 166.42 501.26 165.08 501.26 163.75C497.9 163.42 494.55 163.08 491.2 162.75C490.88 156.09 490.57 149.44 490.25 142.78ZM517.78 148.25C516.4 145.47 514.12 144.6 511.14 145.32C511.14 147.96 511.14 150.61 511.14 153.25C512.84 153.33 513.03 152.89 514.25 151.8C515.08 152.24 515.92 152.68 516.75 153.13C517.05 151.15 516.93 150.19 517.78 148.25ZM317.59 162.75C317.59 157.92 317.59 153.08 317.59 148.25C330.42 143.51 331.96 165.71 317.59 162.75ZM457.75 149.26C458.47 151.83 459.19 154.4 459.92 156.96C458.36 156.96 456.81 156.96 455.25 156.96C454.75 154.16 455.69 151.28 457.75 149.26ZM559.49 182.75C558.5 180.05 546.42 181.12 543.25 181.12C526.42 181.12 509.58 181.12 492.75 181.12C432.92 181.12 373.08 181.12 313.25 181.12C298.58 181.12 283.92 181.12 269.25 181.12C266.17 181.12 256.04 180.17 254.35 182.25C255.6 184.82 267.51 183.71 270.75 183.71C287.92 183.7 305.08 183.71 322.25 183.71C380.92 183.71 439.58 183.71 498.25 183.71C513.25 183.71 528.25 183.71 543.25 183.71C546.78 183.71 557.06 184.76 559.49 182.75Z" fill="#ffffff" fill-rule="evenodd" stroke="#ffffff" stroke-width="0.25" stroke-linejoin="round"/>
<path d="M128.34 33.24C148.1 33.03 164.66 43.06 173.4 60.86C175.84 65.84 181.92 79.3 176.7 83.46C174.04 85.58 162.59 85.75 160.52 82.71C158.79 80.18 159.55 75.66 158.45 72.81C153.49 59.92 141.01 51.38 127.25 51.71C125.66 51.75 124.5 52.38 123.01 52.74C111.01 55.67 103.99 61.33 99.28 73.03C98.27 75.54 98.41 81.45 97.12 82.88C94.1 86.22 81.53 85.9 79.27 81.49C77.44 77.95 81.79 66.66 83.25 63.02C90.54 44.78 108.87 33.44 128.34 33.24ZM68.4 90.23C71.62 89.62 74.62 90.55 77.75 91.01C79.47 91.26 81.32 90.84 83.01 91.26C91.93 93.49 100.98 98.68 107.4 105.36C109.72 107.77 115.84 112.79 116.31 115.89C116.91 119.9 110.06 126.32 106.7 127.98C104.46 129.08 102.1 127.16 100.61 125.64C97.07 121.99 93.42 117.39 89.24 114.5C80.1 108.17 67.88 107.67 57.98 112.25C42.47 119.41 36.05 139.12 43.33 154.41C45.94 159.88 51.54 164.59 56.51 167.73C67.17 174.46 81.83 172.15 91.21 164.46C95.97 160.55 100.11 155.57 104.42 151.17C116.37 138.99 128.52 126.92 140.62 114.87C150.55 104.98 160.11 95.18 173.98 91.26C175.62 90.79 177.55 91.22 179.25 91.07C183.97 90.67 187.47 90.38 192.25 91.08C194.11 91.35 196.17 90.81 197.99 91.27C212.25 94.94 224.87 105.44 230.86 118.89C231.75 120.88 233.23 122.73 233.83 124.86C234.66 127.76 234.81 130.84 235.31 133.81C235.73 136.33 236.37 138.63 236.28 141.23C236.15 145.06 235.06 148.74 234.18 152.36C233.88 153.59 234.19 154.89 233.8 156.1C232.64 159.68 230.21 162.95 228.38 166.12C220.55 179.66 207.8 187.33 192.62 189.79C190.25 190.18 188.2 190.93 185.75 190.88C183.43 190.83 181.47 189.89 179.23 189.58C170.28 188.32 163.39 185.41 155.94 180.31C152.45 177.91 142.34 169 141.11 165.15C140.04 161.82 149.58 151.99 152.75 152.39C156.26 152.82 163.14 161.62 166.11 164.14C175.78 172.35 190.31 174.35 201.42 167.67C216.03 158.9 220.84 140.39 213.44 125.35C209.17 116.69 200.12 111.87 191.41 109.31C189.52 108.76 187.2 109.08 185.25 109.08C173.88 109.08 164.85 116.68 157.92 124.66C156.52 126.27 154.52 127.35 153.11 128.87C151.78 130.3 150.64 132.15 149.18 133.44C136.28 144.87 125.3 157.92 112.79 169.54C110.38 171.77 108.51 174.64 106.06 176.81C98.1 183.9 88.79 188.41 78.27 189.6C75.46 189.92 73.21 191.02 70.25 190.86C63.38 190.5 55.73 188.29 49.45 185.75C46.03 184.37 43.26 181.57 40.39 179.36C27.26 169.24 19.83 151.79 21.52 135.25C21.81 132.44 23.11 129.76 23.78 127.11C25.05 122.05 26.7 116.97 29.77 112.53C36.64 102.6 47.88 94.02 59.9 91.23C62.58 90.6 65.64 90.75 68.4 90.23ZM559.45 127.25C558.02 129.37 546.32 128.45 543.25 128.45C526.75 128.45 510.25 128.35 493.75 128.44C433.59 128.8 373.41 128.68 313.25 128.45C298.58 128.39 283.92 128.45 269.25 128.45C266.15 128.45 256.05 129.41 254.38 127.25C255.6 125.06 267.67 125.97 270.75 125.97C287.25 125.97 303.75 125.95 320.25 125.95C380.58 125.95 440.92 125.95 501.25 125.95C515.75 125.95 530.25 125.97 544.75 125.97C547.72 125.97 558.02 125.03 559.45 127.25ZM559.49 182.75C557.06 184.76 546.78 183.71 543.25 183.71C528.25 183.71 513.25 183.71 498.25 183.71C439.58 183.71 380.92 183.71 322.25 183.71C305.08 183.71 287.92 183.7 270.75 183.71C267.51 183.71 255.6 184.82 254.35 182.25C256.04 180.17 266.17 181.12 269.25 181.12C283.92 181.12 298.58 181.12 313.25 181.12C373.08 181.12 432.92 181.12 492.75 181.12C509.58 181.12 526.42 181.12 543.25 181.12C546.42 181.12 558.5 180.05 559.49 182.75Z" fill="#f26425" fill-rule="evenodd" stroke="#f26425" stroke-width="0.25" stroke-linejoin="round"/>
<path d="M296.87 49.25C295.41 52.24 290.57 58.1 287.25 58.76C281.51 56.35 276.22 52.24 269.39 54.2C252.46 59.07 245.17 80.11 260.41 91.82C265.1 95.43 272.83 97.51 278.61 95.8C282.57 94.63 286.11 90.78 290.25 91.27C292.93 94.03 297.3 96.75 297.6 100.75C294.68 104.86 290.5 106.76 285.95 108.24C284.19 108.81 282.47 109.93 280.62 110.29C276.37 111.13 270.22 111.42 266.03 110.23C264.35 109.75 262.77 108.72 261.08 108.23C245.01 103.52 236.76 86.61 237.62 70.75C237.75 68.39 239.17 65.89 239.87 63.66C245.18 46.73 264.3 35.64 281.72 40.62C286.5 41.99 294.83 43.86 296.87 49.25ZM392.03 59.25C389.66 66.85 391.14 86.82 391.14 95.75C391.14 99.61 392.49 106.56 390.11 109.86C388.57 112.01 381.11 111.47 378.77 110.96C374.4 109.99 375.98 97.43 375.98 93.75C375.98 85.58 375.98 77.42 375.98 69.25C375.98 65.65 375.42 61.36 376.18 57.83C377.14 53.36 380.85 47.92 384.55 45.3C392.09 39.96 404.58 37.97 412.68 43.08C415.07 44.59 419.86 46.98 420.23 50.02C420.47 51.96 412.28 58.25 410.51 58.73C408.11 59.38 404.37 55.83 401.9 55.29C398.36 54.52 394.78 57.54 392.03 59.25ZM509.04 83.25C509.27 92.17 524.66 98.62 532.24 96.99C536.28 96.13 539.76 92.05 543.75 91.72C546.73 93.08 551.56 97.72 552.81 100.75C551.3 104.54 546.37 106.68 542.87 108.18C531 113.25 523.69 112.61 511.89 107.8C509.23 106.72 507 104.24 504.85 102.42C489.68 89.56 489.31 66.05 502.19 51.44C503.7 49.73 505.5 48.73 507.28 47.53C508.44 46.75 509.11 45.31 510.38 44.63C515.56 41.88 522.8 39.76 528.75 39.92C549.18 40.47 566.56 59.56 563.5 80.25C562.84 84.67 553.41 82.87 550.25 82.87C541.08 82.87 531.92 82.87 522.75 82.87C518.43 82.87 513.18 82.08 509.04 83.25ZM318.25 42.33C319.88 45.61 319 50.63 319 54.25C319 61.81 317.83 80.14 320.27 86.5C322.64 92.7 329.88 96.72 336.25 96.93C337.9 96.98 339.2 96.39 340.77 96.07C359.37 92.29 354.64 67.02 354.64 52.75C354.64 49.3 354.08 45.31 355.07 42.01C359.56 42.01 364.04 42.01 368.52 42.01C371.41 46.88 369.87 58.35 369.87 64.25C369.87 70.88 369.59 77.23 368.97 83.75C368.81 85.47 369.26 87.26 368.7 88.94C363.4 104.97 347.28 114.64 330.25 111.54C314.66 108.7 305.33 96.99 303.36 81.75C302.77 77.23 303.3 72.31 303.3 67.75C303.3 61.92 303.3 56.08 303.3 50.25C303.3 48.01 302.72 44.87 304.26 43.02C305.65 41.33 316.04 41.65 318.25 42.33ZM439.75 42.02C442.51 47.8 444.55 53.85 446.97 59.75C449.44 65.78 452.36 71.48 454.73 77.49C455.75 80.07 457.98 88.15 460.25 89.13C463.42 84.29 465.13 77.81 467.15 72.38C467.82 70.57 469.16 68.98 469.94 67.19C471.72 63.08 473.33 58.84 474.96 54.68C475.68 52.85 479.14 43.18 480.21 42.46C481.85 41.34 493.14 41.7 495.25 42.33C496.66 47.63 491.34 53.11 489.74 57.96C486.64 67.35 481.66 76.07 478.67 85.39C477.92 87.74 476.1 89.73 475.31 92.06C474.27 95.13 470.34 106.75 468.19 108.44C466.56 109.72 454.48 109.67 452.3 108.95C449.69 108.08 448.59 102.66 447.46 100.31C442.97 90.99 439.42 81.07 435.7 71.54C432.76 63.98 428.48 57.02 426.01 49.27C425.09 46.36 423.54 45.37 424.25 42.02C429.42 42.02 434.58 42.02 439.75 42.02ZM547.6 67.75C543.25 57.56 531.9 52.61 521.38 56.18C516.57 57.81 509.57 62.21 509.25 67.9C514.16 69.62 531.07 68.36 537.25 68.36C540.36 68.36 544.82 69.18 547.6 67.75ZM310.5 167.75C310.5 159.55 310.5 151.35 310.5 143.15C314.99 141.44 327.66 142.12 331.44 145.31C336.34 149.44 335.73 161.61 330.5 165.24C325.08 169 316.75 168.68 310.5 167.75ZM365.75 142.65C366.57 144.1 366.66 145.14 366.14 146.75C362.38 147.08 358.62 147.42 354.87 147.75C354.87 149.29 354.87 150.83 354.87 152.37C358.53 152.37 362.19 152.37 365.86 152.37C365.86 153.83 365.86 155.29 365.86 156.75C362.18 157.08 358.5 157.42 354.82 157.75C354.82 159.42 354.82 161.08 354.82 162.75C358.67 163.07 362.53 163.39 366.38 163.71C366.38 165.14 366.38 166.57 366.38 168C360.65 168 354.92 168 349.2 168C348.07 164.89 348.03 145.62 349.25 142.65C354.75 142.65 360.25 142.65 365.75 142.65ZM397.25 156.58C397.58 151.97 397.92 147.36 398.25 142.75C400 142.75 401.75 142.75 403.49 142.75C403.41 151.15 403.33 159.56 403.25 167.96C400.75 167.96 398.25 167.96 395.75 167.96C392.92 162.85 390.08 157.74 387.25 152.63C386.95 157.73 386.65 162.84 386.35 167.94C384.54 167.94 382.73 167.94 380.92 167.94C380.92 159.66 380.92 151.38 380.92 143.1C382.24 142.72 383.36 142.62 384.75 142.62C390.67 142.61 389.85 143.58 391.95 148.26C392.69 149.89 394.17 151.24 394.9 152.86C395.65 154.54 395.48 155.64 397.25 156.58ZM435.79 143.25C435.79 144.44 435.79 145.63 435.79 146.81C433.81 147.22 431.83 147.63 429.85 148.04C429.85 154.67 429.85 161.3 429.85 167.92C427.55 167.92 425.24 167.92 422.93 167.92C422.93 161.36 422.93 154.79 422.93 148.22C420.91 147.9 418.89 147.57 416.86 147.25C416.86 145.82 416.86 144.38 416.86 142.95C420.64 142.17 432.49 141.69 435.79 143.25ZM471.25 167.32C465.99 170.63 464.32 166.47 462.25 162.9C459.25 162.9 456.25 162.9 453.25 162.9C452.42 164.41 451.58 165.92 450.75 167.43C448.84 168.35 445.99 168.48 444.28 167.25C447.27 159.14 450.26 151.03 453.25 142.93C455.15 142.45 459.99 141.83 461.66 143.06C463.65 144.55 463.97 148.02 464.66 150.14C466.47 155.69 470.7 161.38 471.25 167.32ZM490.25 142.78C490.57 149.44 490.88 156.09 491.2 162.75C494.55 163.08 497.9 163.42 501.26 163.75C501.26 165.08 501.26 166.42 501.26 167.75C496.66 168.54 488.34 169.21 484.03 167.39C484.03 159.18 484.03 150.98 484.03 142.78C486.1 142.78 488.18 142.78 490.25 142.78ZM517.78 148.25C516.93 150.19 517.05 151.15 516.75 153.13C515.92 152.68 515.08 152.24 514.25 151.8C513.03 152.89 512.84 153.33 511.14 153.25C511.14 150.61 511.14 147.96 511.14 145.32C514.12 144.6 516.4 145.47 517.78 148.25ZM317.59 162.75C331.96 165.71 330.42 143.51 317.59 148.25C317.59 153.08 317.59 157.92 317.59 162.75ZM457.75 149.26C455.69 151.28 454.75 154.16 455.25 156.96C456.81 156.96 458.36 156.96 459.92 156.96C459.19 154.4 458.47 151.83 457.75 149.26Z" fill="#162852" fill-rule="evenodd" stroke="#162852" stroke-width="0.25" stroke-linejoin="round"/>
</svg>