<svg version="1.1" id="Layer_1" xmlns="http://www.w3.org/2000/svg" xmlns:xlink="http://www.w3.org/1999/xlink" x="0px" y="0px"
	 width="100%" viewBox="0 0 1281 806" enable-background="new 0 0 1281 806" xml:space="preserve">
<path fill="#47704C" opacity="1.000000" stroke="none" 
	d="
M841.000000,807.000000 
	C560.700134,807.000000 280.900238,807.000000 1.050188,807.000000 
	C1.050188,538.398926 1.050188,269.797821 1.050188,1.098374 
	C427.883362,1.098374 854.766785,1.098374 1281.825073,1.098374 
	C1281.825073,269.666565 1281.825073,538.333252 1281.825073,807.000000 
	C1135.130859,807.000000 988.315430,807.000000 841.000000,807.000000 
M1104.704956,448.857758 
	C1105.573730,450.011169 1106.671997,451.056305 1107.275513,452.334930 
	C1112.721313,463.871979 1118.182251,475.404297 1123.392456,487.048218 
	C1124.689697,489.947174 1126.438110,491.015991 1129.463867,491.005615 
	C1147.589600,490.943512 1165.715820,491.024261 1183.841431,490.948639 
	C1188.846436,490.927765 1189.577026,489.854919 1187.608276,485.245270 
	C1184.219238,477.309204 1180.562744,469.487579 1177.036011,461.609955 
	C1168.017090,441.464203 1159.007812,421.314087 1150.583618,400.826050 
	C1168.211060,384.228302 1185.422974,367.157990 1203.592041,351.176025 
	C1219.319336,337.341980 1236.450195,325.195465 1255.367798,315.885559 
	C1262.468872,312.390839 1269.731567,309.224030 1277.509888,305.635864 
	C1275.688354,304.975800 1274.371216,304.352631 1272.984375,304.018585 
	C1258.487305,300.526337 1244.007202,300.538330 1229.227661,302.802124 
	C1205.086914,306.499756 1183.168945,315.652924 1162.926147,328.763489 
	C1151.081421,336.434967 1140.167358,345.543335 1128.381836,353.503967 
	C1126.824219,350.203918 1125.219116,346.925354 1123.718140,343.599762 
	C1119.142578,333.462158 1114.593140,323.312653 1110.064697,313.153931 
	C1108.682739,310.053680 1106.828613,307.965668 1102.991699,307.986725 
	C1084.697632,308.086914 1066.402710,308.054199 1048.108154,308.012756 
	C1043.731934,308.002838 1042.940552,309.777588 1044.678955,313.608459 
	C1050.638672,326.741913 1056.389282,339.970398 1062.357910,353.099792 
	C1068.876221,367.438202 1075.548340,381.706696 1081.811890,396.598145 
	C1070.048584,409.423370 1058.436401,422.391449 1046.479370,435.033386 
	C1034.599365,447.593750 1022.311768,459.767578 1010.326355,472.229523 
	C1005.127502,477.635040 1000.237854,483.337952 994.219482,489.999695 
	C997.490967,489.999695 999.417114,489.999664 1001.343262,489.999664 
	C1020.508606,489.999634 1039.674927,489.898529 1058.838501,490.082581 
	C1062.808228,490.120728 1065.706787,489.097107 1068.448853,486.150787 
	C1080.205200,473.518738 1092.162964,461.074066 1104.704956,448.857758 
M381.501221,491.000000 
	C393.663574,490.994720 405.826477,490.922577 417.987885,491.027069 
	C421.409515,491.056458 423.700104,490.132355 424.648010,486.530914 
	C430.105042,465.797729 435.638794,445.084717 441.165192,424.369873 
	C443.012329,417.446289 444.914398,410.537384 446.791321,403.621735 
	C447.301788,403.650818 447.812256,403.679901 448.322693,403.708984 
	C449.405701,405.905518 450.527130,408.084015 451.565796,410.301270 
	C463.400696,435.564880 475.259155,460.817566 487.006042,486.122101 
	C488.601166,489.558228 490.719879,491.118134 494.663605,491.065186 
	C508.989380,490.872803 523.320862,490.868927 537.646606,491.061188 
	C541.914124,491.118469 543.933167,489.486725 544.971985,485.418274 
	C550.564209,463.516113 556.254272,441.638123 562.062683,419.792236 
	C571.330505,384.935242 580.709473,350.107788 590.063110,315.273621 
	C591.691345,309.209869 590.944641,308.044312 584.773010,308.025360 
	C568.945374,307.976746 553.115356,308.154572 537.290833,307.927002 
	C532.286194,307.855042 530.203430,310.100830 529.026306,314.597260 
	C522.755981,338.549011 516.324097,362.458557 509.920715,386.375366 
	C509.532349,387.825836 508.907837,389.213074 508.080597,391.490295 
	C506.849243,389.289734 506.140411,388.179749 505.580475,386.999084 
	C493.960663,362.498322 482.291656,338.020447 470.817627,313.451508 
	C468.935638,309.421753 466.464172,307.828857 461.974609,307.914337 
	C448.650757,308.167938 435.318909,308.021851 421.990234,307.994385 
	C409.224762,307.968079 411.059143,307.981750 408.784515,317.989410 
	C408.563873,318.960205 408.177368,319.892059 407.909943,320.853699 
	C402.081818,341.811401 396.124969,362.734558 390.476959,383.740753 
	C385.559998,402.028107 381.052826,420.425201 376.253113,438.744568 
	C372.166840,454.341064 367.993011,469.915649 363.699341,485.456116 
	C362.552338,489.607574 364.075165,491.034607 368.006927,490.987640 
	C372.171387,490.937866 376.337128,490.991516 381.501221,491.000000 
M107.498947,308.000000 
	C91.177368,308.004364 74.855713,308.035431 58.534267,307.990662 
	C55.256145,307.981659 52.903999,308.546295 51.884888,312.381256 
	C45.526943,336.306549 38.956181,360.175262 32.469891,384.066498 
	C28.943441,397.055664 25.428896,410.048126 21.936718,423.046509 
	C16.333292,443.903320 10.851645,464.793793 5.072634,485.601715 
	C4.019664,489.393066 4.631310,491.071289 8.618022,490.957184 
	C40.531067,490.043823 72.486198,492.835205 104.385735,489.192017 
	C129.056961,486.374359 151.669098,478.982758 171.046097,462.984283 
	C182.916336,453.183716 192.467499,441.394867 198.468521,427.330841 
	C204.557129,413.061554 207.160934,398.025421 207.321442,382.201996 
	C207.628448,351.933411 189.568756,324.940125 161.080719,315.091644 
	C143.968170,309.175720 126.354774,307.913574 107.498947,308.000000 
M812.803589,439.027618 
	C821.698425,438.975800 821.759338,438.951843 824.459473,445.817169 
	C829.809692,459.420776 834.968750,473.101685 840.529358,486.617920 
	C841.283936,488.452087 843.876892,490.732513 845.650574,490.760254 
	C864.966614,491.062256 884.289001,490.954315 903.609680,490.962982 
	C907.008240,490.964508 908.118591,489.696259 906.676331,486.306854 
	C899.517273,469.482178 892.550354,452.575287 885.309692,435.786194 
	C883.748596,432.166382 883.856750,430.498932 887.970337,428.694244 
	C899.281067,423.732147 909.737305,417.153351 917.980652,407.819458 
	C930.122620,394.071320 934.628906,377.480957 932.749146,359.604980 
	C930.654480,339.684906 920.694336,324.875214 901.662415,316.638977 
	C887.453674,310.490021 872.464844,308.586761 857.374023,308.183563 
	C833.905762,307.556519 810.408203,308.064911 786.923584,307.969177 
	C782.960388,307.953003 780.894592,309.408051 779.882507,313.352356 
	C775.174866,331.698608 770.276306,349.996094 765.394165,368.297211 
	C755.070862,406.995087 744.698059,445.679779 734.390747,484.381927 
	C732.762451,490.495789 733.171021,490.969330 739.515564,490.983154 
	C755.671875,491.018372 771.831116,490.827698 787.982971,491.098083 
	C792.873962,491.179932 794.980591,489.542236 796.158569,484.766327 
	C799.501099,471.214142 803.350647,457.786011 807.082764,444.331818 
	C807.773926,441.840210 808.223083,438.873352 812.803589,439.027618 
M366.277802,376.004730 
	C343.778015,376.003143 321.277039,376.139130 298.778839,375.947937 
	C285.474579,375.834900 284.981140,378.973022 289.668701,363.256744 
	C290.621887,360.061035 292.281372,358.946686 295.357086,359.008240 
	C299.355194,359.088226 303.356445,359.002136 307.356354,359.001282 
	C331.189514,358.996216 355.022675,358.996552 378.855835,358.990967 
	C381.885071,358.990234 384.890228,359.214172 385.957825,355.203247 
	C389.721497,341.062866 393.630005,326.961060 397.466278,312.839935 
	C398.256439,309.931396 397.087402,308.314606 394.089203,308.116028 
	C392.428406,308.006012 390.758423,308.005432 389.092560,308.005249 
	C343.592865,307.999939 298.093201,308.000519 252.593521,308.003784 
	C251.093811,308.003876 249.593765,308.073669 248.094452,308.057648 
	C244.658356,308.020935 242.940552,309.989685 242.263992,313.090790 
	C241.945633,314.550049 241.965469,316.090393 241.580994,317.526825 
	C234.188385,345.145569 226.730484,372.746887 219.344040,400.367279 
	C211.788925,428.618378 204.277222,456.881134 196.793182,485.151154 
	C195.366837,490.538971 195.683594,490.968140 201.145859,490.971680 
	C249.145477,491.002777 297.145203,490.954956 345.144653,491.053131 
	C349.331940,491.061707 351.404816,489.736603 352.436005,485.476776 
	C355.525940,472.712830 359.004120,460.041687 362.420135,447.358368 
	C364.616760,439.202484 364.540680,439.009613 355.941467,439.005463 
	C330.608307,438.993256 305.275177,439.001648 279.942017,438.999268 
	C269.740845,438.998291 269.743805,438.995850 272.465179,428.973572 
	C272.682526,428.173065 272.919006,427.357758 272.977051,426.537384 
	C273.247650,422.711914 275.021149,421.357574 279.054443,421.390167 
	C304.071716,421.592316 329.091309,421.510071 354.110138,421.511322 
	C360.986603,421.511658 361.965790,420.818848 363.763550,414.077850 
	C366.548370,403.635529 369.177032,393.151581 371.957245,382.707977 
	C373.451660,377.094238 373.064606,376.455597 366.277802,376.004730 
M666.719299,490.746216 
	C667.866821,488.875977 669.530396,487.145477 670.080505,485.113525 
	C674.682861,468.112427 679.000366,451.034424 683.559875,434.021454 
	C689.626953,411.383484 695.921204,388.805969 701.901428,366.145386 
	C702.969543,362.098267 705.060425,360.910736 708.973389,360.950958 
	C722.799561,361.093079 736.629089,360.905853 750.455383,361.042633 
	C754.447571,361.082092 756.364319,359.677307 757.370056,355.658600 
	C760.839600,341.794434 764.647217,328.013611 768.433472,314.230560 
	C769.940369,308.744995 769.630493,308.037628 763.951660,308.034058 
	C712.139343,308.001251 660.326965,308.038177 608.514709,307.980286 
	C604.627991,307.975952 602.357117,309.263489 601.339600,313.243744 
	C597.681274,327.555023 593.873657,341.829498 589.962830,356.074036 
	C588.810303,360.271698 590.779663,361.017975 594.266907,361.005005 
	C607.761230,360.954773 621.255981,360.979126 634.750366,361.019440 
	C636.677612,361.025208 638.604187,361.271515 641.091919,361.445770 
	C640.508972,364.278046 640.159912,366.535278 639.575134,368.729736 
	C632.812317,394.105469 626.009705,419.470581 619.226807,444.840942 
	C615.664062,458.167023 612.018066,471.472229 608.618713,484.839996 
	C607.358215,489.796539 608.345886,490.939026 613.393127,490.950989 
	C630.884827,490.992462 648.376770,490.911774 666.719299,490.746216 
M990.070374,442.631165 
	C993.896423,428.349243 997.695984,414.060211 1001.554199,399.786987 
	C1009.271729,371.236206 1017.038208,342.698608 1024.742188,314.144165 
	C1026.119507,309.039001 1025.443359,308.067413 1020.298096,308.045563 
	C1003.479797,307.974121 986.660339,308.098358 969.842896,307.957214 
	C965.982422,307.924835 964.119263,309.514252 963.155396,313.103363 
	C957.381042,334.604340 951.422852,356.056061 945.675903,377.564270 
	C936.161255,413.173737 926.776245,448.817780 917.295532,484.436340 
	C915.703491,490.417480 916.004517,490.964630 922.440063,490.980713 
	C938.425964,491.020691 954.415466,490.809784 970.396179,491.102020 
	C975.572205,491.196686 977.798340,489.185059 979.008301,484.381897 
	C982.458130,470.686310 986.261414,457.079803 990.070374,442.631165 
z"/>
<path fill="#1A3668" opacity="1.000000" stroke="none" 
	d="
M381.001770,491.000000 
	C376.337128,490.991516 372.171387,490.937866 368.006927,490.987640 
	C364.075165,491.034607 362.552338,489.607574 363.699341,485.456116 
	C367.993011,469.915649 372.166840,454.341064 376.253113,438.744568 
	C381.052826,420.425201 385.559998,402.028107 390.476959,383.740753 
	C396.124969,362.734558 402.081818,341.811401 407.909943,320.853699 
	C408.177368,319.892059 408.563873,318.960205 408.784515,317.989410 
	C411.059143,307.981750 409.224762,307.968079 421.990234,307.994385 
	C435.318909,308.021851 448.650757,308.167938 461.974609,307.914337 
	C466.464172,307.828857 468.935638,309.421753 470.817627,313.451508 
	C482.291656,338.020447 493.960663,362.498322 505.580475,386.999084 
	C506.140411,388.179749 506.849243,389.289734 508.080597,391.490295 
	C508.907837,389.213074 509.532349,387.825836 509.920715,386.375366 
	C516.324097,362.458557 522.755981,338.549011 529.026306,314.597260 
	C530.203430,310.100830 532.286194,307.855042 537.290833,307.927002 
	C553.115356,308.154572 568.945374,307.976746 584.773010,308.025360 
	C590.944641,308.044312 591.691345,309.209869 590.063110,315.273621 
	C580.709473,350.107788 571.330505,384.935242 562.062683,419.792236 
	C556.254272,441.638123 550.564209,463.516113 544.971985,485.418274 
	C543.933167,489.486725 541.914124,491.118469 537.646606,491.061188 
	C523.320862,490.868927 508.989380,490.872803 494.663605,491.065186 
	C490.719879,491.118134 488.601166,489.558228 487.006042,486.122101 
	C475.259155,460.817566 463.400696,435.564880 451.565796,410.301270 
	C450.527130,408.084015 449.405701,405.905518 448.322693,403.708984 
	C447.812256,403.679901 447.301788,403.650818 446.791321,403.621735 
	C444.914398,410.537384 443.012329,417.446289 441.165192,424.369873 
	C435.638794,445.084717 430.105042,465.797729 424.648010,486.530914 
	C423.700104,490.132355 421.409515,491.056458 417.987885,491.027069 
	C405.826477,490.922577 393.663574,490.994720 381.001770,491.000000 
z"/>
<path fill="#1A3668" opacity="1.000000" stroke="none" 
	d="
M107.998535,308.000000 
	C126.354774,307.913574 143.968170,309.175720 161.080719,315.091644 
	C189.568756,324.940125 207.628448,351.933411 207.321442,382.201996 
	C207.160934,398.025421 204.557129,413.061554 198.468521,427.330841 
	C192.467499,441.394867 182.916336,453.183716 171.046097,462.984283 
	C151.669098,478.982758 129.056961,486.374359 104.385735,489.192017 
	C72.486198,492.835205 40.531067,490.043823 8.618022,490.957184 
	C4.631310,491.071289 4.019664,489.393066 5.072634,485.601715 
	C10.851645,464.793793 16.333292,443.903320 21.936718,423.046509 
	C25.428896,410.048126 28.943441,397.055664 32.469891,384.066498 
	C38.956181,360.175262 45.526943,336.306549 51.884888,312.381256 
	C52.903999,308.546295 55.256145,307.981659 58.534267,307.990662 
	C74.855713,308.035431 91.177368,308.004364 107.998535,308.000000 
M144.763184,386.108643 
	C142.646011,373.089661 134.734512,365.900116 121.989029,363.862213 
	C116.455566,362.977417 110.834892,362.644653 105.258575,362.018951 
	C101.418335,361.588013 99.370743,363.404266 98.506134,367.029175 
	C97.235611,372.356018 95.884773,377.664459 94.504776,382.964233 
	C90.405952,398.705536 86.222076,414.424988 82.189369,430.183105 
	C80.873840,435.323700 81.437950,436.044281 86.834740,435.938019 
	C92.300713,435.830383 97.777687,435.486603 103.216362,434.923065 
	C128.474487,432.305756 146.307175,410.732513 144.763184,386.108643 
z"/>
<path fill="#1A3668" opacity="1.000000" stroke="none" 
	d="
M812.373291,439.044525 
	C808.223083,438.873352 807.773926,441.840210 807.082764,444.331818 
	C803.350647,457.786011 799.501099,471.214142 796.158569,484.766327 
	C794.980591,489.542236 792.873962,491.179932 787.982971,491.098083 
	C771.831116,490.827698 755.671875,491.018372 739.515564,490.983154 
	C733.171021,490.969330 732.762451,490.495789 734.390747,484.381927 
	C744.698059,445.679779 755.070862,406.995087 765.394165,368.297211 
	C770.276306,349.996094 775.174866,331.698608 779.882507,313.352356 
	C780.894592,309.408051 782.960388,307.953003 786.923584,307.969177 
	C810.408203,308.064911 833.905762,307.556519 857.374023,308.183563 
	C872.464844,308.586761 887.453674,310.490021 901.662415,316.638977 
	C920.694336,324.875214 930.654480,339.684906 932.749146,359.604980 
	C934.628906,377.480957 930.122620,394.071320 917.980652,407.819458 
	C909.737305,417.153351 899.281067,423.732147 887.970337,428.694244 
	C883.856750,430.498932 883.748596,432.166382 885.309692,435.786194 
	C892.550354,452.575287 899.517273,469.482178 906.676331,486.306854 
	C908.118591,489.696259 907.008240,490.964508 903.609680,490.962982 
	C884.289001,490.954315 864.966614,491.062256 845.650574,490.760254 
	C843.876892,490.732513 841.283936,488.452087 840.529358,486.617920 
	C834.968750,473.101685 829.809692,459.420776 824.459473,445.817169 
	C821.759338,438.951843 821.698425,438.975800 812.373291,439.044525 
M859.056580,361.686768 
	C850.313965,361.146698 841.575378,360.447388 832.824707,360.225189 
	C831.386169,360.188629 829.033447,361.965912 828.568726,363.384888 
	C825.836121,371.728607 823.506287,380.205658 821.110962,388.657684 
	C820.291870,391.547913 821.327209,393.036041 824.539185,392.994659 
	C832.012756,392.898346 839.527832,393.410339 846.948547,392.773102 
	C851.625610,392.371460 856.494751,390.997864 860.684509,388.884247 
	C866.954712,385.721039 870.799011,380.287689 870.289185,372.842377 
	C869.846924,366.384766 865.490723,363.383209 859.056580,361.686768 
z"/>
<path fill="#1A3668" opacity="1.000000" stroke="none" 
	d="
M366.739807,376.008240 
	C373.064606,376.455597 373.451660,377.094238 371.957245,382.707977 
	C369.177032,393.151581 366.548370,403.635529 363.763550,414.077850 
	C361.965790,420.818848 360.986603,421.511658 354.110138,421.511322 
	C329.091309,421.510071 304.071716,421.592316 279.054443,421.390167 
	C275.021149,421.357574 273.247650,422.711914 272.977051,426.537384 
	C272.919006,427.357758 272.682526,428.173065 272.465179,428.973572 
	C269.743805,438.995850 269.740845,438.998291 279.942017,438.999268 
	C305.275177,439.001648 330.608307,438.993256 355.941467,439.005463 
	C364.540680,439.009613 364.616760,439.202484 362.420135,447.358368 
	C359.004120,460.041687 355.525940,472.712830 352.436005,485.476776 
	C351.404816,489.736603 349.331940,491.061707 345.144653,491.053131 
	C297.145203,490.954956 249.145477,491.002777 201.145859,490.971680 
	C195.683594,490.968140 195.366837,490.538971 196.793182,485.151154 
	C204.277222,456.881134 211.788925,428.618378 219.344040,400.367279 
	C226.730484,372.746887 234.188385,345.145569 241.580994,317.526825 
	C241.965469,316.090393 241.945633,314.550049 242.263992,313.090790 
	C242.940552,309.989685 244.658356,308.020935 248.094452,308.057648 
	C249.593765,308.073669 251.093811,308.003876 252.593521,308.003784 
	C298.093201,308.000519 343.592865,307.999939 389.092560,308.005249 
	C390.758423,308.005432 392.428406,308.006012 394.089203,308.116028 
	C397.087402,308.314606 398.256439,309.931396 397.466278,312.839935 
	C393.630005,326.961060 389.721497,341.062866 385.957825,355.203247 
	C384.890228,359.214172 381.885071,358.990234 378.855835,358.990967 
	C355.022675,358.996552 331.189514,358.996216 307.356354,359.001282 
	C303.356445,359.002136 299.355194,359.088226 295.357086,359.008240 
	C292.281372,358.946686 290.621887,360.061035 289.668701,363.256744 
	C284.981140,378.973022 285.474579,375.834900 298.778839,375.947937 
	C321.277039,376.139130 343.778015,376.003143 366.739807,376.008240 
z"/>
<path fill="#1A3668" opacity="1.000000" stroke="none" 
	d="
M666.293945,490.811890 
	C648.376770,490.911774 630.884827,490.992462 613.393127,490.950989 
	C608.345886,490.939026 607.358215,489.796539 608.618713,484.839996 
	C612.018066,471.472229 615.664062,458.167023 619.226807,444.840942 
	C626.009705,419.470581 632.812317,394.105469 639.575134,368.729736 
	C640.159912,366.535278 640.508972,364.278046 641.091919,361.445770 
	C638.604187,361.271515 636.677612,361.025208 634.750366,361.019440 
	C621.255981,360.979126 607.761230,360.954773 594.266907,361.005005 
	C590.779663,361.017975 588.810303,360.271698 589.962830,356.074036 
	C593.873657,341.829498 597.681274,327.555023 601.339600,313.243744 
	C602.357117,309.263489 604.627991,307.975952 608.514709,307.980286 
	C660.326965,308.038177 712.139343,308.001251 763.951660,308.034058 
	C769.630493,308.037628 769.940369,308.744995 768.433472,314.230560 
	C764.647217,328.013611 760.839600,341.794434 757.370056,355.658600 
	C756.364319,359.677307 754.447571,361.082092 750.455383,361.042633 
	C736.629089,360.905853 722.799561,361.093079 708.973389,360.950958 
	C705.060425,360.910736 702.969543,362.098267 701.901428,366.145386 
	C695.921204,388.805969 689.626953,411.383484 683.559875,434.021454 
	C679.000366,451.034424 674.682861,468.112427 670.080505,485.113525 
	C669.530396,487.145477 667.866821,488.875977 666.293945,490.811890 
z"/>
<path fill="#1A3668" opacity="1.000000" stroke="none" 
	d="
M1149.994751,401.165710 
	C1159.007812,421.314087 1168.017090,441.464203 1177.036011,461.609955 
	C1180.562744,469.487579 1184.219238,477.309204 1187.608276,485.245270 
	C1189.577026,489.854919 1188.846436,490.927765 1183.841431,490.948639 
	C1165.715820,491.024261 1147.589600,490.943512 1129.463867,491.005615 
	C1126.438110,491.015991 1124.689697,489.947174 1123.392456,487.048218 
	C1118.182251,475.404297 1112.721313,463.871979 1107.275513,452.334930 
	C1106.671997,451.056305 1105.573730,450.011169 1104.649170,448.400604 
	C1104.697266,447.102020 1105.140991,446.116302 1104.854248,445.440918 
	C1101.045410,436.472229 1097.270020,427.484711 1093.207275,418.629974 
	C1089.707886,411.003510 1085.851807,403.540771 1082.153564,396.005646 
	C1075.548340,381.706696 1068.876221,367.438202 1062.357910,353.099792 
	C1056.389282,339.970398 1050.638672,326.741913 1044.678955,313.608459 
	C1042.940552,309.777588 1043.731934,308.002838 1048.108154,308.012756 
	C1066.402710,308.054199 1084.697632,308.086914 1102.991699,307.986725 
	C1106.828613,307.965668 1108.682739,310.053680 1110.064697,313.153931 
	C1114.593140,323.312653 1119.142578,333.462158 1123.718140,343.599762 
	C1125.219116,346.925354 1126.824219,350.203918 1128.595215,354.040558 
	C1131.037720,360.069977 1133.056030,365.660339 1135.541504,371.034607 
	C1140.216797,381.144226 1145.161865,391.129028 1149.994751,401.165710 
z"/>
<path fill="#1A3668" opacity="1.000000" stroke="none" 
	d="
M989.998047,443.034729 
	C986.261414,457.079803 982.458130,470.686310 979.008301,484.381897 
	C977.798340,489.185059 975.572205,491.196686 970.396179,491.102020 
	C954.415466,490.809784 938.425964,491.020691 922.440063,490.980713 
	C916.004517,490.964630 915.703491,490.417480 917.295532,484.436340 
	C926.776245,448.817780 936.161255,413.173737 945.675903,377.564270 
	C951.422852,356.056061 957.381042,334.604340 963.155396,313.103363 
	C964.119263,309.514252 965.982422,307.924835 969.842896,307.957214 
	C986.660339,308.098358 1003.479797,307.974121 1020.298096,308.045563 
	C1025.443359,308.067413 1026.119507,309.039001 1024.742188,314.144165 
	C1017.038208,342.698608 1009.271729,371.236206 1001.554199,399.786987 
	C997.695984,414.060211 993.896423,428.349243 989.998047,443.034729 
z"/>
<path fill="#6AC7B9" opacity="1.000000" stroke="none" 
	d="
M1150.289185,400.995880 
	C1145.161865,391.129028 1140.216797,381.144226 1135.541504,371.034607 
	C1133.056030,365.660339 1131.037720,360.069977 1128.821533,354.291199 
	C1140.167358,345.543335 1151.081421,336.434967 1162.926147,328.763489 
	C1183.168945,315.652924 1205.086914,306.499756 1229.227661,302.802124 
	C1244.007202,300.538330 1258.487305,300.526337 1272.984375,304.018585 
	C1274.371216,304.352631 1275.688354,304.975800 1277.509888,305.635864 
	C1269.731567,309.224030 1262.468872,312.390839 1255.367798,315.885559 
	C1236.450195,325.195465 1219.319336,337.341980 1203.592041,351.176025 
	C1185.422974,367.157990 1168.211060,384.228302 1150.289185,400.995880 
z"/>
<path fill="#6AC7B9" opacity="1.000000" stroke="none" 
	d="
M1081.982666,396.301880 
	C1085.851807,403.540771 1089.707886,411.003510 1093.207275,418.629974 
	C1097.270020,427.484711 1101.045410,436.472229 1104.854248,445.440918 
	C1105.140991,446.116302 1104.697266,447.102020 1104.320312,448.252258 
	C1092.162964,461.074066 1080.205200,473.518738 1068.448853,486.150787 
	C1065.706787,489.097107 1062.808228,490.120728 1058.838501,490.082581 
	C1039.674927,489.898529 1020.508606,489.999634 1001.343262,489.999664 
	C999.417114,489.999664 997.490967,489.999695 994.219482,489.999695 
	C1000.237854,483.337952 1005.127502,477.635040 1010.326355,472.229523 
	C1022.311768,459.767578 1034.599365,447.593750 1046.479370,435.033386 
	C1058.436401,422.391449 1070.048584,409.423370 1081.982666,396.301880 
z"/>
<path fill="#47704C" opacity="1.000000" stroke="none" 
	d="
M144.818817,386.545410 
	C146.307175,410.732513 128.474487,432.305756 103.216362,434.923065 
	C97.777687,435.486603 92.300713,435.830383 86.834740,435.938019 
	C81.437950,436.044281 80.873840,435.323700 82.189369,430.183105 
	C86.222076,414.424988 90.405952,398.705536 94.504776,382.964233 
	C95.884773,377.664459 97.235611,372.356018 98.506134,367.029175 
	C99.370743,363.404266 101.418335,361.588013 105.258575,362.018951 
	C110.834892,362.644653 116.455566,362.977417 121.989029,363.862213 
	C134.734512,365.900116 142.646011,373.089661 144.818817,386.545410 
z"/>
<path fill="#47704C" opacity="1.000000" stroke="none" 
	d="
M859.361938,361.844910 
	C865.490723,363.383209 869.846924,366.384766 870.289185,372.842377 
	C870.799011,380.287689 866.954712,385.721039 860.684509,388.884247 
	C856.494751,390.997864 851.625610,392.371460 846.948547,392.773102 
	C839.527832,393.410339 832.012756,392.898346 824.539185,392.994659 
	C821.327209,393.036041 820.291870,391.547913 821.110962,388.657684 
	C823.506287,380.205658 825.836121,371.728607 828.568726,363.384888 
	C829.033447,361.965912 831.386169,360.188629 832.824707,360.225189 
	C841.575378,360.447388 850.313965,361.146698 859.361938,361.844910 
z"/>
</svg>