<?xml version="1.0" encoding="UTF-8"?>
<svg xmlns="http://www.w3.org/2000/svg" viewBox="0 0 738 384" width="738" height="384">
<path d="M0.13 0.13C246.04 0.13 491.96 0.13 737.88 0.13C737.89 49.76 737.9 99.39 737.92 149.03C731.53 148.86 725.14 148.7 718.75 148.54C718.42 143.72 718.08 138.9 717.75 134.09C715.67 134.81 713.59 135.53 711.51 136.25C711.26 140.42 711 144.58 710.75 148.75C701.71 148.75 692.67 148.75 683.63 148.75C682.56 146.16 683.34 143 683.54 140.25C684.1 132.37 685.78 123.39 694.28 120.53C698.96 118.95 703.26 120.84 707.75 121.45C708.49 119.72 709.23 117.98 709.97 116.25C707.23 114.28 703.06 113.81 699.75 113.82C697.25 113.83 694.63 114.2 692.22 114.91C681.65 118.07 677.17 128.71 676.21 138.85C675.91 141.97 676.26 145.22 675.75 148.31C672.59 148.79 669.43 149.27 666.27 149.75C666.3 151.42 666.32 153.08 666.34 154.75C669.31 154.99 672.28 155.22 675.25 155.46C677.04 158.23 675.95 168.53 675.95 172.25C675.95 182.75 675.95 193.25 675.95 203.75C675.95 208.58 675 214.59 676.26 219.25C678.42 219.31 680.59 219.37 682.75 219.44C684.2 215.02 683.18 208.91 683.18 204.25C683.18 193.42 683.18 182.58 683.18 171.75C683.18 167.88 682.08 158.57 683.75 155.47C692.75 155.49 701.75 155.51 710.75 155.53C711.58 159.22 711.05 163.47 711.05 167.25C711.05 179.24 708.97 201.66 713.01 212.23C716.18 220.55 730.12 224.5 737.19 219.25C737 217.75 736.81 216.25 736.63 214.75C731.83 213.34 726.03 217.04 721.78 212.47C718.07 208.48 718.35 202.8 718.35 197.75C718.35 188.25 718.35 178.75 718.35 169.25C718.35 165.44 717.01 158.36 719.24 155.25C725.47 155.17 731.69 155.1 737.92 155.02C737.9 231.3 737.89 307.59 737.88 383.88C491.96 383.88 246.04 383.88 0.13 383.88C0.11 300.09 0.1 216.31 0.08 132.53C2.72 134.28 3.3 140.52 4.33 143.41C8.2 154.33 11.63 165.42 15.28 176.45C24.52 204.33 34.48 232.14 42.97 260.28C45.75 269.5 48.83 278.68 51.91 287.8C53.31 291.96 54.25 297.66 56.75 301.21C59.98 301.92 65.08 299 68.25 297.99C77.31 295.11 86.34 292.06 95.43 289.22C127.96 279.05 160.55 268.57 192.76 257.5C200.98 254.68 209.28 251.78 217.62 249.33C220.79 248.39 226.11 247.69 228.39 245.25C227.77 239.28 224.57 233.19 222.78 227.45C218.59 213.98 214.11 200.57 209.5 187.24C208.19 183.44 204.59 169.3 202.25 167.39C201.12 169.89 200.54 174.27 197.25 174.25C194.48 170.89 197.84 166.74 198.69 163.41C199.02 162.1 197.8 160.52 197.71 159.17C197.46 155.52 199.32 152.76 196.75 149.43C195.42 150.26 194.08 151.08 192.75 151.9C186.27 147.96 194.1 139.88 192.42 134.8C187.5 119.92 182.94 104.89 177.63 90.14C176.22 86.24 174.51 76.86 171.82 74.25C114.58 92.86 57.33 111.47 0.08 130.08C0.1 86.76 0.11 43.44 0.13 0.13ZM478.25 97.31C475.61 98.27 474.11 101.6 472.72 103.98C469.18 110.04 465.69 116.07 462.67 122.4C454.66 139.14 446.94 155.9 440.7 173.41C438.59 179.31 436.85 185.31 435.12 191.33C434.39 193.88 434.25 197.23 432.75 199.43C430.54 199.87 428.33 200.31 426.12 200.75C424.19 198.44 426.88 192.76 427.79 190.09C429.23 185.84 431.03 181.6 433.71 177.95C435.27 175.82 438.64 173.52 439.21 170.92C440 167.3 433.26 156.64 429.58 155.73C423.83 154.32 416.84 159.12 412.24 161.99C397.41 171.25 383.76 185.12 373.26 199.01C370.15 203.12 362.15 212.64 363.28 217.94C365 225.98 371.98 226.42 378.09 222.83C386.82 217.7 395.44 212.29 404.47 207.71C407.54 206.16 411.33 202.93 414.75 202.7C418 205.87 412.98 209.45 410.4 210.67C399.27 215.92 388.17 222.5 378.74 230.49C362.95 243.86 349.77 259.88 346.73 280.94C345.35 290.49 346.21 302.35 355.61 307.65C363.34 312 377.86 306.08 384.4 301.18C406.33 284.74 411.06 257.1 416.2 231.89C418 223.06 417.38 213.92 426 209.25C427.58 208.4 429.45 207.26 431.27 207.25C433.41 210.77 431.35 225.4 436.44 227.78C439.88 229.39 444.74 224.72 444.49 221.25C444.31 218.64 441.15 218.56 439.74 217.01C437.43 214.48 437.96 208.08 439.31 205.06C440.32 202.8 444.67 202.29 446.79 201.58C452.49 199.68 458.12 197.62 463.73 195.46C466.08 194.54 468.26 192.99 470.75 192.59C470.9 198.01 465.56 196.79 463.04 199.75C462.92 202.89 465.92 204.86 465.98 207.75C466.05 211.39 462.9 213.04 464.71 219.06C467.1 227 476.2 230.37 483.77 229.66C497.74 228.35 510.81 221.31 522.19 213.45C527.94 209.47 533.62 205.35 538.53 200.29C540.15 198.63 542.75 196.31 542.75 193.93C539.75 190.48 529.32 199.17 526.06 201.3C514.57 208.82 502.47 216.55 489.23 220.44C483.54 222.11 475.73 223.29 471.86 217.38C470.15 214.78 470.92 209.61 473.59 207.82C475.65 206.45 479.31 206.55 481.73 205.94C485.15 205.09 488.46 203.72 491.77 202.53C508.52 196.47 527.18 185.74 538.1 171.35C542.76 165.21 546.9 156.06 543.43 148.33C539.71 140 526.6 143.28 520.13 145.86C507.15 151.02 495.69 160.96 486.58 171.35C483.49 174.88 476.61 185.62 473.75 187.56C466.62 183.61 455.84 190.51 449 193.27C446.61 194.24 443.98 196.34 441.45 195.75C442.65 185.84 447.81 175.2 451.84 166.12C458.16 151.91 464.01 136.71 472.21 123.45C474.09 120.4 481.93 107.54 482.08 104.75C482.23 102.14 480.18 98.89 478.25 97.31ZM143.37 111.73C160.48 110.63 158.81 140.31 141.88 138.76C127.02 137.4 129.26 112.64 143.37 111.73ZM92.8 117.14C102.49 115.1 113.56 126.34 102.54 132.77C98.35 135.21 91.6 134.75 88.2 131.06C83.61 126.09 86.18 118.53 92.8 117.14ZM169.75 120.75C176.17 122.52 174.13 133.77 168.78 133.37C162.87 132.93 164.73 122.49 169.75 120.75ZM185.75 123.22C189.59 125.04 188.42 132.17 184.25 132.51C181.56 130.2 182.41 124.52 185.75 123.22ZM183.41 155.25C189.11 162.43 184.46 166.25 181.19 172.75C182.05 173.45 183.21 174.03 183.68 175.08C185.83 179.86 180.24 192.37 174.25 191.35C169.19 185.93 176.96 179.08 178.48 174.25C170.84 169.37 177.61 161.43 180.94 156.25C176.66 152.16 176.49 146.97 179.52 141.77C180.57 139.97 182.26 137.46 184.66 137.71C189.93 138.27 188.08 147.44 186.71 150.47C185.88 152.31 184.33 153.52 183.41 155.25ZM167.61 160.25C168.85 161.58 170.63 161.83 171.5 163.76C174.31 169.99 169.1 176.86 165.34 181.25C166.91 182.57 168.96 182.54 169.71 185.05C171.42 190.8 162.68 206.57 155.76 205.05C153.16 204.47 152.94 200.72 153.32 198.66C154.09 194.5 155.98 190.63 158.5 187.26C159.51 185.92 161.06 185.12 161.75 183.57C160.62 183.12 159.19 183.3 158.12 182.62C156.52 181.61 155.96 179.48 155.85 177.75C155.39 170.51 160 166.73 164.1 161.75C162.18 159.89 159.85 159.43 158.8 156.45C156.68 150.48 161.72 138.22 169.25 138.86C172.13 139.11 173.69 142 174.24 144.53C175.67 151.08 171.43 155.74 167.61 160.25ZM142.32 140.65C148.81 139.48 154.11 144.77 153.82 151.23C153.42 160.15 144.13 171.23 134.37 168.81C128.57 167.37 126.82 160.92 127.65 155.77C128.81 148.53 135.09 141.97 142.32 140.65ZM99.55 180.75C102.94 183.23 113.6 178.74 115.73 188.53C116.86 193.74 114.18 198.99 111.48 203.22C104.49 214.15 82.36 230.08 69.13 222.62C63.65 219.53 63.97 212.82 65.86 207.65C68.84 199.47 75.8 192.86 82.99 188.25C85.8 186.45 89.5 185.42 91.97 183.25C89.9 182.57 87.91 183.18 85.75 183.13C79.83 183.02 73.67 181.19 69.98 176.27C65.65 170.5 67.49 161.83 71.83 156.6C78.98 147.97 90.43 141.8 101.95 142.76C115.28 143.87 124.44 155.05 115.77 167.52C112.97 171.54 109.22 175.25 104.93 177.67C103.15 178.68 101.06 179.39 99.55 180.75ZM368.16 149.25C366.14 145.92 361.12 146.46 357.76 147.09C348.89 148.74 340.4 154.71 333.44 160.2C325.78 166.24 318.66 173.31 313.15 181.38C310.88 184.69 307.74 192.91 306.08 194.83C303.98 197.25 300.02 198.86 297.33 200.56C290.36 204.99 283.52 209.67 276.18 213.44C269.1 217.07 256.75 223.8 248.64 221.66C243.17 220.22 237.22 211.27 244.32 207.54C246.56 206.36 255.4 205.16 259.03 203.76C275.95 197.23 294.68 188.03 306.51 173.75C311.92 167.21 319.1 155.24 312.94 146.83C307.64 139.61 292.52 144.34 286.14 147.88C270.55 156.52 257.48 168.94 247.28 183.53C244.4 187.65 242.4 192.26 239.68 196.43C238.12 198.81 234.51 197.2 233.25 200.38C233.52 203.09 236.27 205.17 236.36 207.76C236.48 210.97 233.46 212.67 234.74 218.03C236.68 226.09 245.44 230.34 253.22 229.82C266.6 228.92 279.99 222.11 290.87 214.61C293.34 212.91 302.17 205.62 304.27 205.25C305.15 206.98 304.87 209 305.29 210.93C306.68 217.44 310.42 228.09 319.24 225.56C324.18 224.14 327.97 218.86 333.25 218.7C335.39 221.06 334.7 226.24 338.76 227.02C343.27 227.9 353.67 220.2 351.25 215.54C349.72 215.27 348.19 215.01 346.66 214.75C345.86 205.91 354.31 198.73 359.27 192.52C363.81 186.82 366.77 179.94 369.62 173.36C371.6 168.8 374.87 164.5 370.94 160.33C370.01 159.34 369.15 158.29 367.75 158.25C365.08 160.39 359.96 172.05 357.6 175.86C350.67 187 341.49 197.74 331.75 206.5C327.6 210.23 318.99 220.32 313.45 214.8C307.02 208.4 312.71 196.64 316.7 190.44C324.74 177.94 336.48 168.09 348.97 160.23C352.86 157.78 366.16 151.74 368.16 149.25ZM590.75 152.03C588.52 149.24 583.61 148.49 580.26 147.93C567.86 145.85 552.28 153.12 553.5 167.75C555.16 187.55 585.45 183.35 586.41 200.75C587.09 213.05 573.77 216.59 563.93 214.27C560.65 213.49 557.49 211.1 554.25 210.72C553.43 212.4 552.61 214.07 551.79 215.75C553.5 218.79 559.06 219.67 562.27 220.43C574.39 223.29 591.26 218.63 593.24 204.45C593.58 201.99 593.53 199.65 593.18 197.18C590.81 180.29 570.67 182.86 562.73 172.01C555.66 162.34 565.71 153.49 575.25 153.69C580.81 153.81 584.99 157.09 588.46 157.25C589.22 155.51 589.99 153.77 590.75 152.03ZM628.86 147.72C586.84 152.62 589.47 222.69 631.74 221.39C671.06 220.18 678 159.1 641.43 148.78C637.35 147.62 633.08 147.23 628.86 147.72ZM480.25 195.4C479.36 191.15 483.95 185.36 486.23 181.98C494.15 170.25 505.11 159.48 517.88 153.15C521.84 151.19 533.79 146.63 537.04 151.22C541.07 156.9 533.08 164.54 529.45 168.19C519.72 177.96 507.55 186.65 494.89 192.17C490.9 193.91 484.57 197.06 480.25 195.4ZM250.75 195.44C249.66 191.21 254.36 185.28 256.59 181.85C264.28 170.02 275.73 159.37 288.38 153.15C292.47 151.13 304.16 146.6 307.44 151.34C311.43 157.08 303.14 164.72 299.59 168.34C290.03 178.08 277.68 187.11 264.99 192.25C260.99 193.88 255.06 197.02 250.75 195.44ZM194.31 153.25C198.51 156.34 195.22 167.04 190.25 167.97C186.03 165.46 189.22 153.42 194.31 153.25ZM630.79 153.69C665.51 151.47 666.56 213.39 633.75 215.03C598.31 216.79 596.17 155.91 630.79 153.69ZM428.25 163.26C430.45 167.33 423.01 176.83 420.43 180.16C411.08 192.22 398.84 203.1 385.83 211.08C382.02 213.42 374.8 218.39 370.22 216.75C370.11 212.25 377.2 204.38 380.19 200.93C389.72 189.89 400.38 178.42 412.73 170.49C417.02 167.74 422.84 162.89 428.25 163.26ZM192.75 169.48C196.88 173.09 192.23 182.99 187.75 184.53C183.67 181.16 187.76 170.17 192.75 169.48ZM138.85 172.21C145.14 171.24 148.32 176.42 147.31 182.14C145.88 190.29 134.01 205.35 124.51 200.72C120.28 198.66 120.33 193.15 121.44 189.24C123.57 181.81 130.92 173.44 138.85 172.21ZM189.75 187.96C189.99 189.86 189.62 190.68 187.75 191.05C187.59 189.23 187.95 188.31 189.75 187.96ZM140.61 203.75C144.55 207.95 136.46 216.96 131.7 216.25C127.95 211.91 135.7 202.79 140.61 203.75ZM163.25 208.39C165.01 211.19 161.76 216.03 158.75 216.42C157.14 214.28 160.33 207.97 163.25 208.39ZM411.56 217.25C412.37 219.67 408.56 233.53 408.01 237.25C405.27 255.83 398.72 281.06 384.22 293.96C378.24 299.29 365.97 305.07 358.14 300.6C348.14 294.89 352.07 278.7 355.6 270.32C362.95 252.88 376.91 237.32 392.52 226.76C397.77 223.21 405.05 217.68 411.56 217.25ZM642.25 239.1C640.52 240.05 640.98 241.94 640.98 243.75C640.98 246.73 640.08 257.97 642.25 259.14C645.84 257.51 640.98 247.3 647.23 247.6C653.35 247.9 646.69 258.84 652.25 258.91C654.07 256.4 653.33 246.61 649.5 245.27C647.54 244.58 646.07 245.68 644.25 245.97C643 243.79 644.84 240.33 642.25 239.1ZM689.75 239.2C687 239.14 687.6 241.51 687.6 243.75C687.6 247.39 686.58 256.09 688.25 258.98C689.09 258.93 689.62 259.17 690.13 258.33C690.74 257.34 690.19 254.87 690.19 253.75C690.19 250.42 691.21 241.79 689.75 239.2ZM489.15 252.25C491.84 251.48 495.06 251.75 496.85 249.11C501.47 242.24 491.61 237.65 486.25 240.68C485.63 243.46 485.35 258.11 487.25 259.14C489.92 257.84 488.09 254.64 489.15 252.25ZM614.52 241.25C613.51 239.33 601.87 239.28 600.25 240.83C600.7 243.36 603.84 242.17 605.75 242.85C606.57 246.84 604.65 256.29 606.75 259.09C607.49 259.01 608.22 259.22 608.69 258.44C609.88 256.44 608.17 246.25 609.25 242.8C611.24 242.36 613.38 243.18 614.52 241.25ZM489.75 249.45C488.25 247.83 488.24 244.52 489.25 242.59C495.98 240.46 497.62 249.58 489.75 249.45ZM516.25 242.66C514.29 242.79 513.47 244.74 512.23 246.25C512.67 247.44 513.82 247.95 514.06 249.25C514.67 252.55 512.9 262.18 519.75 258.98C519.89 257.02 518.53 257.03 516.94 256.25C516.94 253.55 516.94 250.85 516.94 248.16C518.02 247.52 519.1 246.89 520.18 246.25C517.66 244.21 518.41 245.55 516.25 242.66ZM525.75 242.64C523.47 242.63 523.21 244.82 521.5 246.25C521.99 247.14 523.07 247.83 523.33 248.85C524.03 251.55 521.99 263.39 529.19 258.75C529.19 257.12 527.54 256.92 526.33 256.25C526.33 253.58 526.33 250.92 526.33 248.25C527.37 247.75 528.41 247.25 529.45 246.75C528.87 245.39 528.11 245.41 526.75 244.92C526.42 244.16 526.08 243.4 525.75 242.64ZM475.75 259.03C477.14 256.37 476.95 248.76 474.76 246.48C472.84 244.49 467.38 244.06 466.73 247.25C468.81 249.01 472.35 245.31 472.93 249.75C471.31 250.69 469.35 250.5 467.72 251.48C464.93 253.18 464.35 257.62 467.7 259.1C468.86 259.61 473.78 258.92 475.75 259.03ZM509.87 258.75C510.41 255.58 510.94 250.01 509.06 247.18C507.21 244.4 501.54 243.94 500.33 247.25C502.42 248.56 506.19 245.64 506.75 249.5C504.84 250.96 501.87 250.39 500.2 252.44C499.36 253.47 498.94 254.92 499.13 256.22C499.81 260.71 504.04 258.8 506.78 258.61C507.92 258.54 508.69 259.01 509.87 258.75ZM542.75 252.64C545.12 244.7 533.95 242.37 531.39 249.68C530.33 252.71 531.2 256.9 534.13 258.62C536.35 259.92 540.99 260.22 542.15 257.75C539.72 255.63 534.82 258.7 534.05 253.75C536.08 251.94 540.14 253.49 542.75 252.64ZM552.89 245.75C552.37 245.37 547.62 245.65 546.59 245.75C545.07 248.44 545.44 255.72 546.25 258.75C551.23 259.86 547.95 252.48 549.38 249.65C550.48 247.48 552.77 248.49 552.89 245.75ZM562.77 246.75C561.32 243.05 554.57 245.49 554.69 249.23C554.79 252.82 559.7 252.73 560.73 255.75C558.88 258.23 556.09 255.58 554.66 257.75C555.88 261.08 562.85 259.74 563.39 256.22C564.14 251.29 557.87 252.14 557.75 248.53C559.28 246.71 561.43 248.4 562.77 246.75ZM570.4 245.22C561.71 247.55 565.54 262.4 574.75 259.03C582.51 256.19 578.88 242.95 570.4 245.22ZM591.75 258.95C595.33 258.6 594.42 249.2 592.48 246.78C590.14 243.86 587.96 245.97 585.25 246.06C584.2 246.1 583.32 245.6 582.25 245.63C581.47 248.09 581.1 258.12 583.25 259.15C587.05 257.39 581.73 248 587.77 247.6C593.15 247.25 589.73 256.67 591.75 258.95ZM624.78 252.75C628.58 246.4 617.55 241.99 614.23 248.46C612.55 251.76 612.99 256.35 616.26 258.5C618.38 259.9 623.31 260.29 624.48 257.75C622.58 255.89 616.31 258.54 616.27 253.75C619.11 253.42 621.94 253.08 624.78 252.75ZM637.5 247.75C638.74 244.9 635.44 244.78 633.28 245.13C630.54 245.57 627.97 247.99 627.44 250.75C626.19 257.33 635.73 263.33 638.06 257.75C636.45 256.13 634.01 257.84 632.05 256.21C629.32 253.94 629.88 248.84 633.39 247.67C634.83 247.19 636.08 247.75 637.5 247.75ZM667.75 259.04C669.89 256.53 669.09 246.52 664.98 245.28C662.21 244.44 660.35 246.2 657.25 245.46C656.51 246.44 656.17 257.93 657.03 258.67C657.62 259.18 658.05 258.96 658.75 259C660.94 255.8 656.9 246.79 663.83 247.75C667.29 250.42 662.99 258.63 667.75 259.04ZM676.34 245.18C668.01 246.87 670.47 260.51 679.23 259.42C688.17 258.3 685.66 243.3 676.34 245.18ZM698.39 245.21C690.24 247.26 692.53 260.72 701.23 259.42C710.12 258.09 707.65 242.88 698.39 245.21ZM721.03 245.75C717.96 245.69 714.31 244.17 711.44 246.21C707.52 248.98 707.82 256.83 712.46 258.76C714.41 259.57 716.34 258.77 718.25 258.54C720.12 264.35 712.36 261.48 710.25 262.67C710.05 266.53 717.43 265.22 719.43 263.67C722.33 261.41 722.61 248.45 721.03 245.75ZM724.75 245.61C723.01 248.22 728.52 255.05 728.64 258.25C728.76 261.27 724.75 261.71 724.75 264.42C729.46 267.34 733.61 253.79 734.88 250.67C735.59 248.95 736.75 247.17 735.75 245.47C731.77 245.84 732.53 251.7 730.25 254.18C728.34 251.74 728.36 245.61 724.75 245.61ZM540.25 250.04C538.8 251.33 535.99 251.08 534.32 250.25C534.17 246.55 540.01 246.25 540.25 250.04ZM622.33 250.25C620.79 251.16 618.21 251.16 616.67 250.25C616.91 246.58 622.3 246.29 622.33 250.25ZM571.28 247.53C577.16 246.14 577.79 256.98 572.25 257.16C567.46 257.32 566.84 248.59 571.28 247.53ZM676.84 247.61C682.42 245.95 683.86 256.2 678.75 257.08C673.56 257.98 672.29 248.97 676.84 247.61ZM698.89 247.66C704.52 245.69 705.97 256.13 700.74 257.07C695.59 257.99 694.38 249.23 698.89 247.66ZM714.34 247.57C719.62 245.98 720.75 256.27 715.71 256.87C710.94 257.43 710.11 248.85 714.34 247.57ZM473.25 252.88C473.88 255.87 471.91 257.62 468.98 256.75C468.71 256.08 468.45 255.42 468.18 254.75C469.32 252.98 471.27 252.08 473.25 252.88ZM506.75 252.56C508.31 255.62 504.97 258.21 502.25 256.29C501.53 253.26 504.21 252.4 506.75 252.56Z" fill="#ffffff" fill-rule="evenodd" stroke="#ffffff" stroke-width="0.25" stroke-linejoin="round"/>
<path d="M0.08 132.53C0.08 131.72 0.08 130.9 0.08 130.08C57.33 111.47 114.58 92.86 171.82 74.25C174.51 76.86 176.22 86.24 177.63 90.14C182.94 104.89 187.5 119.92 192.42 134.8C194.1 139.88 186.27 147.96 192.75 151.9C194.08 151.08 195.42 150.26 196.75 149.43C199.32 152.76 197.46 155.52 197.71 159.17C197.8 160.52 199.02 162.1 198.69 163.41C197.84 166.74 194.48 170.89 197.25 174.25C200.54 174.27 201.12 169.89 202.25 167.39C204.59 169.3 208.19 183.44 209.5 187.24C214.11 200.57 218.59 213.98 222.78 227.45C224.57 233.19 227.77 239.28 228.39 245.25C226.11 247.69 220.79 248.39 217.62 249.33C209.28 251.78 200.98 254.68 192.76 257.5C160.55 268.57 127.96 279.05 95.43 289.22C86.34 292.06 77.31 295.11 68.25 297.99C65.08 299 59.98 301.92 56.75 301.21C54.25 297.66 53.31 291.96 51.91 287.8C48.83 278.68 45.75 269.5 42.97 260.28C34.48 232.14 24.52 204.33 15.28 176.45C11.63 165.42 8.2 154.33 4.33 143.41C3.3 140.52 2.72 134.28 0.08 132.53ZM143.37 111.73C129.26 112.64 127.02 137.4 141.88 138.76C158.81 140.31 160.48 110.63 143.37 111.73ZM737.92 149.03C737.92 151.03 737.92 153.02 737.92 155.02C731.69 155.1 725.47 155.17 719.24 155.25C717.01 158.36 718.35 165.44 718.35 169.25C718.35 178.75 718.35 188.25 718.35 197.75C718.35 202.8 718.07 208.48 721.78 212.47C726.03 217.04 731.83 213.34 736.63 214.75C736.81 216.25 737 217.75 737.19 219.25C730.12 224.5 716.18 220.55 713.01 212.23C708.97 201.66 711.05 179.24 711.05 167.25C711.05 163.47 711.58 159.22 710.75 155.53C701.75 155.51 692.75 155.49 683.75 155.47C682.08 158.57 683.18 167.88 683.18 171.75C683.18 182.58 683.18 193.42 683.18 204.25C683.18 208.91 684.2 215.02 682.75 219.44C680.59 219.37 678.42 219.31 676.26 219.25C675 214.59 675.95 208.58 675.95 203.75C675.95 193.25 675.95 182.75 675.95 172.25C675.95 168.53 677.04 158.23 675.25 155.46C672.28 155.22 669.31 154.99 666.34 154.75C666.32 153.08 666.3 151.42 666.27 149.75C669.43 149.27 672.59 148.79 675.75 148.31C676.26 145.22 675.91 141.97 676.21 138.85C677.17 128.71 681.65 118.07 692.22 114.91C694.63 114.2 697.25 113.83 699.75 113.82C703.06 113.81 707.23 114.28 709.97 116.25C709.23 117.98 708.49 119.72 707.75 121.45C703.26 120.84 698.96 118.95 694.28 120.53C685.78 123.39 684.1 132.37 683.54 140.25C683.34 143 682.56 146.16 683.63 148.75C692.67 148.75 701.71 148.75 710.75 148.75C711 144.58 711.26 140.42 711.51 136.25C713.59 135.53 715.67 134.81 717.75 134.09C718.08 138.9 718.42 143.72 718.75 148.54C725.14 148.7 731.53 148.86 737.92 149.03ZM92.8 117.14C86.18 118.53 83.61 126.09 88.2 131.06C91.6 134.75 98.35 135.21 102.54 132.77C113.56 126.34 102.49 115.1 92.8 117.14ZM169.75 120.75C164.73 122.49 162.87 132.93 168.78 133.37C174.13 133.77 176.17 122.52 169.75 120.75ZM185.75 123.22C182.41 124.52 181.56 130.2 184.25 132.51C188.42 132.17 189.59 125.04 185.75 123.22ZM183.41 155.25C184.33 153.52 185.88 152.31 186.71 150.47C188.08 147.44 189.93 138.27 184.66 137.71C182.26 137.46 180.57 139.97 179.52 141.77C176.49 146.97 176.66 152.16 180.94 156.25C177.61 161.43 170.84 169.37 178.48 174.25C176.96 179.08 169.19 185.93 174.25 191.35C180.24 192.37 185.83 179.86 183.68 175.08C183.21 174.03 182.05 173.45 181.19 172.75C184.46 166.25 189.11 162.43 183.41 155.25ZM167.61 160.25C171.43 155.74 175.67 151.08 174.24 144.53C173.69 142 172.13 139.11 169.25 138.86C161.72 138.22 156.68 150.48 158.8 156.45C159.85 159.43 162.18 159.89 164.1 161.75C160 166.73 155.39 170.51 155.85 177.75C155.96 179.48 156.52 181.61 158.12 182.62C159.19 183.3 160.62 183.12 161.75 183.57C161.06 185.12 159.51 185.92 158.5 187.26C155.98 190.63 154.09 194.5 153.32 198.66C152.94 200.72 153.16 204.47 155.76 205.05C162.68 206.57 171.42 190.8 169.71 185.05C168.96 182.54 166.91 182.57 165.34 181.25C169.1 176.86 174.31 169.99 171.5 163.76C170.63 161.83 168.85 161.58 167.61 160.25ZM142.32 140.65C135.09 141.97 128.81 148.53 127.65 155.77C126.82 160.92 128.57 167.37 134.37 168.81C144.13 171.23 153.42 160.15 153.82 151.23C154.11 144.77 148.81 139.48 142.32 140.65ZM99.55 180.75C101.06 179.39 103.15 178.68 104.93 177.67C109.22 175.25 112.97 171.54 115.77 167.52C124.44 155.05 115.28 143.87 101.95 142.76C90.43 141.8 78.98 147.97 71.83 156.6C67.49 161.83 65.65 170.5 69.98 176.27C73.67 181.19 79.83 183.02 85.75 183.13C87.91 183.18 89.9 182.57 91.97 183.25C89.5 185.42 85.8 186.45 82.99 188.25C75.8 192.86 68.84 199.47 65.86 207.65C63.97 212.82 63.65 219.53 69.13 222.62C82.36 230.08 104.49 214.15 111.48 203.22C114.18 198.99 116.86 193.74 115.73 188.53C113.6 178.74 102.94 183.23 99.55 180.75ZM590.75 152.03C589.99 153.77 589.22 155.51 588.46 157.25C584.99 157.09 580.81 153.81 575.25 153.69C565.71 153.49 555.66 162.34 562.73 172.01C570.67 182.86 590.81 180.29 593.18 197.18C593.53 199.65 593.58 201.99 593.24 204.45C591.26 218.63 574.39 223.29 562.27 220.43C559.06 219.67 553.5 218.79 551.79 215.75C552.61 214.07 553.43 212.4 554.25 210.72C557.49 211.1 560.65 213.49 563.93 214.27C573.77 216.59 587.09 213.05 586.41 200.75C585.45 183.35 555.16 187.55 553.5 167.75C552.28 153.12 567.86 145.85 580.26 147.93C583.61 148.49 588.52 149.24 590.75 152.03ZM628.86 147.72C633.08 147.23 637.35 147.62 641.43 148.78C678 159.1 671.06 220.18 631.74 221.39C589.47 222.69 586.84 152.62 628.86 147.72ZM194.31 153.25C189.22 153.42 186.03 165.46 190.25 167.97C195.22 167.04 198.51 156.34 194.31 153.25ZM630.79 153.69C596.17 155.91 598.31 216.79 633.75 215.03C666.56 213.39 665.51 151.47 630.79 153.69ZM192.75 169.48C187.76 170.17 183.67 181.16 187.75 184.53C192.23 182.99 196.88 173.09 192.75 169.48ZM138.85 172.21C130.92 173.44 123.57 181.81 121.44 189.24C120.33 193.15 120.28 198.66 124.51 200.72C134.01 205.35 145.88 190.29 147.31 182.14C148.32 176.42 145.14 171.24 138.85 172.21ZM189.75 187.96C187.95 188.31 187.59 189.23 187.75 191.05C189.62 190.68 189.99 189.86 189.75 187.96ZM140.61 203.75C135.7 202.79 127.95 211.91 131.7 216.25C136.46 216.96 144.55 207.95 140.61 203.75ZM163.25 208.39C160.33 207.97 157.14 214.28 158.75 216.42C161.76 216.03 165.01 211.19 163.25 208.39Z" fill="#1fbfcb" fill-rule="evenodd" stroke="#1fbfcb" stroke-width="0.25" stroke-linejoin="round"/>
<path d="M478.25 97.31C480.18 98.89 482.23 102.14 482.08 104.75C481.93 107.54 474.09 120.4 472.21 123.45C464.01 136.71 458.16 151.91 451.84 166.12C447.81 175.2 442.65 185.84 441.45 195.75C443.98 196.34 446.61 194.24 449 193.27C455.84 190.51 466.62 183.61 473.75 187.56C476.61 185.62 483.49 174.88 486.58 171.35C495.69 160.96 507.15 151.02 520.13 145.86C526.6 143.28 539.71 140 543.43 148.33C546.9 156.06 542.76 165.21 538.1 171.35C527.18 185.74 508.52 196.47 491.77 202.53C488.46 203.72 485.15 205.09 481.73 205.94C479.31 206.55 475.65 206.45 473.59 207.82C470.92 209.61 470.15 214.78 471.86 217.38C475.73 223.29 483.54 222.11 489.23 220.44C502.47 216.55 514.57 208.82 526.06 201.3C529.32 199.17 539.75 190.48 542.75 193.93C542.75 196.31 540.15 198.63 538.53 200.29C533.62 205.35 527.94 209.47 522.19 213.45C510.81 221.31 497.74 228.35 483.77 229.66C476.2 230.37 467.1 227 464.71 219.06C462.9 213.04 466.05 211.39 465.98 207.75C465.92 204.86 462.92 202.89 463.04 199.75C465.56 196.79 470.9 198.01 470.75 192.59C468.26 192.99 466.08 194.54 463.73 195.46C458.12 197.62 452.49 199.68 446.79 201.58C444.67 202.29 440.32 202.8 439.31 205.06C437.96 208.08 437.43 214.48 439.74 217.01C441.15 218.56 444.31 218.64 444.49 221.25C444.74 224.72 439.88 229.39 436.44 227.78C431.35 225.4 433.41 210.77 431.27 207.25C429.45 207.26 427.58 208.4 426 209.25C417.38 213.92 418 223.06 416.2 231.89C411.06 257.1 406.33 284.74 384.4 301.18C377.86 306.08 363.34 312 355.61 307.65C346.21 302.35 345.35 290.49 346.73 280.94C349.77 259.88 362.95 243.86 378.74 230.49C388.17 222.5 399.27 215.92 410.4 210.67C412.98 209.45 418 205.87 414.75 202.7C411.33 202.93 407.54 206.16 404.47 207.71C395.44 212.29 386.82 217.7 378.09 222.83C371.98 226.42 365 225.98 363.28 217.94C362.15 212.64 370.15 203.12 373.26 199.01C383.76 185.12 397.41 171.25 412.24 161.99C416.84 159.12 423.83 154.32 429.58 155.73C433.26 156.64 440 167.3 439.21 170.92C438.64 173.52 435.27 175.82 433.71 177.95C431.03 181.6 429.23 185.84 427.79 190.09C426.88 192.76 424.19 198.44 426.12 200.75C428.33 200.31 430.54 199.87 432.75 199.43C434.25 197.23 434.39 193.88 435.12 191.33C436.85 185.31 438.59 179.31 440.7 173.41C446.94 155.9 454.66 139.14 462.67 122.4C465.69 116.07 469.18 110.04 472.72 103.98C474.11 101.6 475.61 98.27 478.25 97.31ZM368.16 149.25C366.16 151.74 352.86 157.78 348.97 160.23C336.48 168.09 324.74 177.94 316.7 190.44C312.71 196.64 307.02 208.4 313.45 214.8C318.99 220.32 327.6 210.23 331.75 206.5C341.49 197.74 350.67 187 357.6 175.86C359.96 172.05 365.08 160.39 367.75 158.25C369.15 158.29 370.01 159.34 370.94 160.33C374.87 164.5 371.6 168.8 369.62 173.36C366.77 179.94 363.81 186.82 359.27 192.52C354.31 198.73 345.86 205.91 346.66 214.75C348.19 215.01 349.72 215.27 351.25 215.54C353.67 220.2 343.27 227.9 338.76 227.02C334.7 226.24 335.39 221.06 333.25 218.7C327.97 218.86 324.18 224.14 319.24 225.56C310.42 228.09 306.68 217.44 305.29 210.93C304.87 209 305.15 206.98 304.27 205.25C302.17 205.62 293.34 212.91 290.87 214.61C279.99 222.11 266.6 228.92 253.22 229.82C245.44 230.34 236.68 226.09 234.74 218.03C233.46 212.67 236.48 210.97 236.36 207.76C236.27 205.17 233.52 203.09 233.25 200.38C234.51 197.2 238.12 198.81 239.68 196.43C242.4 192.26 244.4 187.65 247.28 183.53C257.48 168.94 270.55 156.52 286.14 147.88C292.52 144.34 307.64 139.61 312.94 146.83C319.1 155.24 311.92 167.21 306.51 173.75C294.68 188.03 275.95 197.23 259.03 203.76C255.4 205.16 246.56 206.36 244.32 207.54C237.22 211.27 243.17 220.22 248.64 221.66C256.75 223.8 269.1 217.07 276.18 213.44C283.52 209.67 290.36 204.99 297.33 200.56C300.02 198.86 303.98 197.25 306.08 194.83C307.74 192.91 310.88 184.69 313.15 181.38C318.66 173.31 325.78 166.24 333.44 160.2C340.4 154.71 348.89 148.74 357.76 147.09C361.12 146.46 366.14 145.92 368.16 149.25ZM480.25 195.4C484.57 197.06 490.9 193.91 494.89 192.17C507.55 186.65 519.72 177.96 529.45 168.19C533.08 164.54 541.07 156.9 537.04 151.22C533.79 146.63 521.84 151.19 517.88 153.15C505.11 159.48 494.15 170.25 486.23 181.98C483.95 185.36 479.36 191.15 480.25 195.4ZM250.75 195.44C255.06 197.02 260.99 193.88 264.99 192.25C277.68 187.11 290.03 178.08 299.59 168.34C303.14 164.72 311.43 157.08 307.44 151.34C304.16 146.6 292.47 151.13 288.38 153.15C275.73 159.37 264.28 170.02 256.59 181.85C254.36 185.28 249.66 191.21 250.75 195.44ZM428.25 163.26C422.84 162.89 417.02 167.74 412.73 170.49C400.38 178.42 389.72 189.89 380.19 200.93C377.2 204.38 370.11 212.25 370.22 216.75C374.8 218.39 382.02 213.42 385.83 211.08C398.84 203.1 411.08 192.22 420.43 180.16C423.01 176.83 430.45 167.33 428.25 163.26ZM411.56 217.25C405.05 217.68 397.77 223.21 392.52 226.76C376.91 237.32 362.95 252.88 355.6 270.32C352.07 278.7 348.14 294.89 358.14 300.6C365.97 305.07 378.24 299.29 384.22 293.96C398.72 281.06 405.27 255.83 408.01 237.25C408.56 233.53 412.37 219.67 411.56 217.25ZM642.25 239.1C644.84 240.33 643 243.79 644.25 245.97C646.07 245.68 647.54 244.58 649.5 245.27C653.33 246.61 654.07 256.4 652.25 258.91C646.69 258.84 653.35 247.9 647.23 247.6C640.98 247.3 645.84 257.51 642.25 259.14C640.08 257.97 640.98 246.73 640.98 243.75C640.98 241.94 640.52 240.05 642.25 239.1ZM689.75 239.2C691.21 241.79 690.19 250.42 690.19 253.75C690.19 254.87 690.74 257.34 690.13 258.33C689.62 259.17 689.09 258.93 688.25 258.98C686.58 256.09 687.6 247.39 687.6 243.75C687.6 241.51 687 239.14 689.75 239.2ZM489.15 252.25C488.09 254.64 489.92 257.84 487.25 259.14C485.35 258.11 485.63 243.46 486.25 240.68C491.61 237.65 501.47 242.24 496.85 249.11C495.06 251.75 491.84 251.48 489.15 252.25ZM614.52 241.25C613.38 243.18 611.24 242.36 609.25 242.8C608.17 246.25 609.88 256.44 608.69 258.44C608.22 259.22 607.49 259.01 606.75 259.09C604.65 256.29 606.57 246.84 605.75 242.85C603.84 242.17 600.7 243.36 600.25 240.83C601.87 239.28 613.51 239.33 614.52 241.25ZM489.75 249.45C497.62 249.58 495.98 240.46 489.25 242.59C488.24 244.52 488.25 247.83 489.75 249.45ZM516.25 242.66C518.41 245.55 517.66 244.21 520.18 246.25C519.1 246.89 518.02 247.52 516.94 248.16C516.94 250.85 516.94 253.55 516.94 256.25C518.53 257.03 519.89 257.02 519.75 258.98C512.9 262.18 514.67 252.55 514.06 249.25C513.82 247.95 512.67 247.44 512.23 246.25C513.47 244.74 514.29 242.79 516.25 242.66ZM525.75 242.64C526.08 243.4 526.42 244.16 526.75 244.92C528.11 245.41 528.87 245.39 529.45 246.75C528.41 247.25 527.37 247.75 526.33 248.25C526.33 250.92 526.33 253.58 526.33 256.25C527.54 256.92 529.19 257.12 529.19 258.75C521.99 263.39 524.03 251.55 523.33 248.85C523.07 247.83 521.99 247.14 521.5 246.25C523.21 244.82 523.47 242.63 525.75 242.64ZM475.75 259.03C473.78 258.92 468.86 259.61 467.7 259.1C464.35 257.62 464.93 253.18 467.72 251.48C469.35 250.5 471.31 250.69 472.93 249.75C472.35 245.31 468.81 249.01 466.73 247.25C467.38 244.06 472.84 244.49 474.76 246.48C476.95 248.76 477.14 256.37 475.75 259.03ZM509.87 258.75C508.69 259.01 507.92 258.54 506.78 258.61C504.04 258.8 499.81 260.71 499.13 256.22C498.94 254.92 499.36 253.47 500.2 252.44C501.87 250.39 504.84 250.96 506.75 249.5C506.19 245.64 502.42 248.56 500.33 247.25C501.54 243.94 507.21 244.4 509.06 247.18C510.94 250.01 510.41 255.58 509.87 258.75ZM542.75 252.64C540.14 253.49 536.08 251.94 534.05 253.75C534.82 258.7 539.72 255.63 542.15 257.75C540.99 260.22 536.35 259.92 534.13 258.62C531.2 256.9 530.33 252.71 531.39 249.68C533.95 242.37 545.12 244.7 542.75 252.64ZM552.89 245.75C552.77 248.49 550.48 247.48 549.38 249.65C547.95 252.48 551.23 259.86 546.25 258.75C545.44 255.72 545.07 248.44 546.59 245.75C547.62 245.65 552.37 245.37 552.89 245.75ZM562.77 246.75C561.43 248.4 559.28 246.71 557.75 248.53C557.87 252.14 564.14 251.29 563.39 256.22C562.85 259.74 555.88 261.08 554.66 257.75C556.09 255.58 558.88 258.23 560.73 255.75C559.7 252.73 554.79 252.82 554.69 249.23C554.57 245.49 561.32 243.05 562.77 246.75ZM570.4 245.22C578.88 242.95 582.51 256.19 574.75 259.03C565.54 262.4 561.71 247.55 570.4 245.22ZM591.75 258.95C589.73 256.67 593.15 247.25 587.77 247.6C581.73 248 587.05 257.39 583.25 259.15C581.1 258.12 581.47 248.09 582.25 245.63C583.32 245.6 584.2 246.1 585.25 246.06C587.96 245.97 590.14 243.86 592.48 246.78C594.42 249.2 595.33 258.6 591.75 258.95ZM624.78 252.75C621.94 253.08 619.11 253.42 616.27 253.75C616.31 258.54 622.58 255.89 624.48 257.75C623.31 260.29 618.38 259.9 616.26 258.5C612.99 256.35 612.55 251.76 614.23 248.46C617.55 241.99 628.58 246.4 624.78 252.75ZM637.5 247.75C636.08 247.75 634.83 247.19 633.39 247.67C629.88 248.84 629.32 253.94 632.05 256.21C634.01 257.84 636.45 256.13 638.06 257.75C635.73 263.33 626.19 257.33 627.44 250.75C627.97 247.99 630.54 245.57 633.28 245.13C635.44 244.78 638.74 244.9 637.5 247.75ZM667.75 259.04C662.99 258.63 667.29 250.42 663.83 247.75C656.9 246.79 660.94 255.8 658.75 259C658.05 258.96 657.62 259.18 657.03 258.67C656.17 257.93 656.51 246.44 657.25 245.46C660.35 246.2 662.21 244.44 664.98 245.28C669.09 246.52 669.89 256.53 667.75 259.04ZM676.34 245.18C685.66 243.3 688.17 258.3 679.23 259.42C670.47 260.51 668.01 246.87 676.34 245.18ZM698.39 245.21C707.65 242.88 710.12 258.09 701.23 259.42C692.53 260.72 690.24 247.26 698.39 245.21ZM721.03 245.75C722.61 248.45 722.33 261.41 719.43 263.67C717.43 265.22 710.05 266.53 710.25 262.67C712.36 261.48 720.12 264.35 718.25 258.54C716.34 258.77 714.41 259.57 712.46 258.76C707.82 256.83 707.52 248.98 711.44 246.21C714.31 244.17 717.96 245.69 721.03 245.75ZM724.75 245.61C728.36 245.61 728.34 251.74 730.25 254.18C732.53 251.7 731.77 245.84 735.75 245.47C736.75 247.17 735.59 248.95 734.88 250.67C733.61 253.79 729.46 267.34 724.75 264.42C724.75 261.71 728.76 261.27 728.64 258.25C728.52 255.05 723.01 248.22 724.75 245.61ZM540.25 250.04C540.01 246.25 534.17 246.55 534.32 250.25C535.99 251.08 538.8 251.33 540.25 250.04ZM622.33 250.25C622.3 246.29 616.91 246.58 616.67 250.25C618.21 251.16 620.79 251.16 622.33 250.25ZM571.28 247.53C566.84 248.59 567.46 257.32 572.25 257.16C577.79 256.98 577.16 246.14 571.28 247.53ZM676.84 247.61C672.29 248.97 673.56 257.98 678.75 257.08C683.86 256.2 682.42 245.95 676.84 247.61ZM698.89 247.66C694.38 249.23 695.59 257.99 700.74 257.07C705.97 256.13 704.52 245.69 698.89 247.66ZM714.34 247.57C710.11 248.85 710.94 257.43 715.71 256.87C720.75 256.27 719.62 245.98 714.34 247.57ZM473.25 252.88C471.27 252.08 469.32 252.98 468.18 254.75C468.45 255.42 468.71 256.08 468.98 256.75C471.91 257.62 473.88 255.87 473.25 252.88ZM506.75 252.56C504.21 252.4 501.53 253.26 502.25 256.29C504.97 258.21 508.31 255.62 506.75 252.56Z" fill="#959799" fill-rule="evenodd" stroke="#959799" stroke-width="0.25" stroke-linejoin="round"/>
</svg>