<?xml version="1.0" encoding="UTF-8"?>
<svg xmlns="http://www.w3.org/2000/svg" viewBox="0 0 300 100" width="300" height="100">
<path d="M183.25 17.9C185.57 18.91 184.63 27.96 184.63 30.75C184.63 40 186.53 51.91 176.85 57.11C174.6 58.32 171.81 59.16 169.25 58.72C152.97 55.93 153.16 30.15 170.25 29.37C174.9 29.16 177.63 31.85 181.25 34.05C183.31 30.78 179.79 19.22 183.25 17.9ZM268 29.75C270.56 30.44 275.33 28.78 275.37 32.25C272.92 32.58 270.47 32.92 268.02 33.25C266.91 36.34 266.94 51.09 269.21 53.57C271.1 55.63 274.21 54.57 275.75 56.75C273.05 59.95 267.97 56.9 266.28 53.99C262.91 48.22 265.82 39.77 264.75 33.41C262.95 32.66 261.3 33.26 261.25 30.89C262.39 30.51 263.52 30.13 264.66 29.75C265.02 27.93 265.39 26.11 265.75 24.29C268.48 24.19 267.43 27.92 268 29.75ZM44.75 34.29C49.27 32.1 50.55 28.73 56.75 29.46C67.97 30.79 67.21 39.37 67.21 48.25C67.21 51.15 67.91 55.12 66.67 57.75C63.13 57.86 64.4 52.31 64.4 49.75C64.4 42.93 65.99 33.66 57.01 32.27C40.7 29.75 48.78 50.32 45.72 57.75C42.16 57.88 43.5 51.87 43.5 49.25C43.5 42.28 44.45 32.5 34.75 32.2C24 31.85 25.19 42.74 25.19 50.25C25.19 52.58 26.14 56.85 23.75 57.95C21.71 55.94 22.88 49.18 22.88 46.25C22.88 43.13 22.18 38.98 23.23 36C25.43 29.8 33.91 28.21 39.36 30.38C41.58 31.26 42.86 33 44.75 34.29ZM199.2 49.75C199.68 58.56 213.14 52.62 215.77 56.75C213.97 58.79 209.85 57.97 207.25 57.95C193.27 57.82 190.4 37.24 200.61 31.35C212.68 24.39 226.78 38.6 217.76 47.51C213.23 51.98 204.67 48.04 199.2 49.75ZM251.68 57.75C248.31 57.81 249.57 52.23 249.57 49.75C249.57 43.29 250.99 33.18 242.1 32.24C225.93 30.53 235.57 50.85 231.51 57.75C227.98 57.96 229.39 50.3 229.39 47.75C229.39 39.36 229.57 29.99 240.25 29.4C252.53 28.73 252.22 39.38 252.22 48.25C252.22 51.16 252.92 55.12 251.68 57.75ZM96.64 38.75C97.45 30.45 83.51 34.49 79.98 32.25C80.01 31.47 79.71 31.19 80.31 30.51C81.13 29.57 90.71 30.11 92.25 30.53C102.33 33.27 104.25 49.47 96.48 55.73C88.36 62.28 74.15 57.1 75.26 45.75C76.28 35.34 89.88 39.92 96.64 38.75ZM120.25 39.78C123.75 37.67 126.18 29.66 130.75 30.25C130.8 34.76 123.6 38.3 122.4 42.75C126.12 47.75 129.84 52.75 133.56 57.75C131.62 59.23 130.43 57.02 129.25 55.5C126.67 52.2 123.73 47.29 120.25 45.03C116.15 47.57 112.11 57.6 107.75 58.43C106.35 56.63 108.46 54.89 109.68 53.43C112.28 50.31 117.03 46.11 118.2 42.25C116.49 38.31 109.78 34.5 109.75 30.23C114.3 29.71 116.83 37.52 120.25 39.78ZM146.75 30.27C148.47 33.34 147.43 47.86 147.43 52.25C147.43 54.63 148.2 57.63 145.75 58.66C144.17 56.75 144.77 53.67 144.77 51.25C144.77 46.36 145.93 37.63 144.38 33.25C142.43 32.57 142.26 32.35 142.25 30.27C143.75 30.27 145.25 30.27 146.75 30.27ZM198.31 46.25C200.73 47 203.71 46.57 206.25 46.57C212.02 46.57 220.35 46.76 216.8 37.91C214.04 31.02 203.61 30.31 199.35 36.09C197.33 38.83 197.52 43.11 198.31 46.25ZM168.38 32.68C155.67 35.7 158.04 57.29 171.5 55.7C186.62 53.92 183.35 29.12 168.38 32.68ZM97.75 42.02C95.37 41.1 92.31 41.56 89.75 41.56C83.85 41.56 74.07 41.31 78.92 50.8C84.18 61.07 101.04 55.43 97.75 42.02Z" fill="#2d7fc1" fill-rule="evenodd" stroke="#2d7fc1" stroke-width="0.25" stroke-linejoin="round"/>
<path d="M30.09 63.75C30.09 64.75 30.09 65.75 30.09 66.75C28.45 68.01 25.97 67.72 25.05 68.41C24.74 68.64 24.61 71.1 23.75 72.14C22.49 69.21 22.77 65.48 23.08 62.25C25.66 61.1 28.64 60.96 30.09 63.75ZM39.65 63.75C39.19 65.08 38.73 66.42 38.28 67.75C38.86 69.08 39.45 70.42 40.04 71.75C37.83 72.06 37.36 70.6 37 68.75C36.17 68.42 35.33 68.08 34.5 67.75C34.08 69.19 33.67 70.64 33.25 72.08C31.28 69.35 31.51 64.89 32.75 61.85C35.55 61.02 37.82 61.38 39.65 63.75ZM45.75 61.76C46.41 62.61 49.68 70.71 49.52 71.25C49.12 72.59 49.46 70.84 48.75 72.28C48.17 71.28 47.58 70.28 47 69.28C45.92 69.28 44.83 69.28 43.75 69.28C43.25 70.23 42.75 71.19 42.25 72.15C41.33 69.74 43.32 62.79 45.75 61.76ZM54.75 61.41C57.42 61.68 58.53 62.38 57.75 64.98C56.34 63.08 55.49 63.41 53.25 63.5C52.52 66.4 52.57 67.61 53.25 70.5C56.14 70.65 56.1 70.76 57.75 68.61C59.14 70.11 57.72 72.51 55.25 72.64C50.28 72.88 50.34 66.33 51.7 63.25C52.72 62.64 53.73 62.02 54.75 61.41ZM67.64 62.25C66.68 62.83 65.71 63.42 64.75 64C65.48 66.61 65.35 69.71 64.25 72.15C62.47 70.13 63.48 63.88 62.83 63.37C62.22 62.9 61.17 62.91 60.36 62.25C62.9 61.23 65.11 61.24 67.64 62.25ZM78.25 61.37C79.33 62.33 80.41 63.29 81.49 64.25C78.8 64.65 77.92 62.78 75 64.75C75.5 66.75 76 68.75 76.5 70.75C78 70.25 79.5 69.75 81 69.25C81.03 71.09 79.97 72 78.25 72.65C75.61 72.36 74.45 71.1 73.43 68.75C74.69 65.18 72.68 62.18 78.25 61.37ZM89.5 62.75C88.11 63.56 87.2 63.55 85.5 63.25C85.08 66.63 87.6 65.3 90.09 66.75C88.42 67.84 87.35 68.03 85.41 67.75C85.41 68.71 85.41 69.67 85.41 70.63C87.16 70.63 88.9 70.63 90.65 70.63C88.73 73.12 87.48 72.72 84.25 72.28C82.92 69.49 83.27 65.34 83.71 62.25C85.76 61.29 88.24 60.76 89.5 62.75ZM98.25 61.58C100.32 62.86 101.05 66.59 101 68.75C103.85 68.32 103.15 70.83 101.75 72.3C100.22 70.76 100.46 68.31 99.25 67C98.24 68.11 98.98 70.28 97.75 72.09C96.52 69.35 95.99 63.7 98.25 61.58ZM105.25 61.7C107.05 63.82 106.76 69.93 105.25 72.13C104.32 70.1 104.94 69.44 105 67.25C104.23 66.92 103.46 66.58 102.7 66.25C103.22 64.35 103.38 62.53 105.25 61.7ZM111.75 61.69C112.37 62.16 116.11 69.94 115.87 70.79C115.63 71.66 115.25 71.55 114.75 72.15C112.54 68.34 110.87 67.99 108.75 72.15C107.34 70.07 109.77 63.32 111.75 61.69ZM123.75 67.5C123.43 65.23 122.71 64.24 124.25 61.91C125.45 64.55 126.11 70.37 123.75 72.24C121.39 70.6 121.68 67.11 119.08 66C119.08 67.75 119.08 69.5 119.08 71.25C117.86 70.77 118.79 72.07 117.89 71.27C117.66 71.07 117.99 70.02 118 69.75C118.1 67.12 117.41 64.69 117.42 62.25C121.84 61.78 120.82 68.61 123.75 67.5ZM130.75 61.67C132.66 63.31 135.23 70.18 134.25 72.23C133.58 71.21 132.92 70.2 132.25 69.18C131.25 69.18 130.25 69.18 129.25 69.18C128.45 71.27 128.35 71.37 126.63 71.25C127.79 68.31 128.32 63.8 130.75 61.67ZM143.75 64.91C142.38 63.18 141.58 63.42 139.5 63.25C138.06 66.28 138.16 67.73 139.5 70.75C143.94 70.27 143.84 69.81 140.88 67.25C144.57 65.87 145.14 67.32 144.96 70.75C143.59 72.23 142.26 72.58 140.25 72.65C139.14 71.85 138.03 71.05 136.93 70.25C136.13 68.05 136.83 66.45 136.7 64.25C138.72 61.5 145.31 59.8 143.75 64.91ZM153.92 63.32C152.27 63.32 150.62 63.32 148.97 63.32C148.97 64.05 148.97 64.77 148.97 65.5C150.5 65.92 152.03 66.33 153.55 66.75C151.93 67.84 150.9 68.03 149.01 67.75C149.01 68.75 149.01 69.75 149.01 70.75C150.99 70.37 152.24 70.49 154.07 71.25C152.32 72.8 150.05 72.79 147.75 72.15C146.5 69.21 146.75 65.47 147.11 62.25C149.83 61.06 152.02 60.97 153.92 63.32ZM157.75 61.63C159.14 63.13 159.51 64.37 159 66.25C160.74 67.87 159.68 68.81 162.45 69.25C161.88 70.26 161.32 71.26 160.75 72.27C159.92 70.51 159.08 68.76 158.25 67C157.21 68.15 158.1 70.21 156.75 72.05C155.66 69.38 154.84 62.95 157.75 61.63ZM164.25 61.69C166.28 63.87 165.72 69.38 164.75 72.08C161.94 69.14 165.77 68.45 161.88 66.25C162.39 64.42 162.47 62.54 164.25 61.69ZM173.5 62.75C172.11 63.56 171.2 63.54 169.5 63.25C168.99 66.73 171.36 64.76 173 66.75C172.01 68.2 171.18 68 169.4 67.75C169.4 68.69 169.4 69.64 169.4 70.58C171.11 70.58 172.81 70.58 174.52 70.58C172.67 73.26 170.55 72.97 167.38 71.75C167.38 68.58 167.38 65.42 167.38 62.25C169.58 61.38 172.18 60.66 173.5 62.75ZM177.75 61.71C179.25 63.81 180.75 65.9 182.25 68C183.23 66.92 182.31 63.84 183.25 61.9C184.67 64.35 185.14 70.16 183.25 72.29C181.1 71.19 180.12 68.05 178.75 66C178.42 68.03 178.08 70.05 177.75 72.08C175.76 70.02 175.48 63.66 177.75 61.71ZM193.15 62.25C192.18 62.83 191.22 63.42 190.25 64C191.02 66.7 190.91 69.7 189.75 72.15C187.51 69.31 189.93 65.46 188.7 63.52C188.49 63.18 186.54 62.76 185.96 62.25C188.44 61.21 190.66 61.26 193.15 62.25ZM201.25 61.54C203.54 61.34 205.13 61.7 205.25 64C204.06 63.83 202.07 62.4 200.75 64C201.59 66.09 204.39 66.32 206.07 67.75C206.07 68.88 206.07 70.02 206.07 71.15C205.3 71.61 204.52 72.06 203.75 72.52C200.96 72.72 198.92 71.86 199.25 68.85C201.59 69.47 201.97 71.32 204.75 70C202.85 68.42 200.94 66.83 199.04 65.25C199.28 63.57 199.76 62.45 201.25 61.54ZM210.68 61.82C217.36 59.1 219.49 71.21 213.25 72.54C207.55 73.77 205.87 63.79 210.68 61.82ZM225.15 62.75C223.08 63.54 221.3 63 220 64.75C221.21 66.27 222.78 65.88 224.5 66.75C223.25 67.17 222 67.58 220.75 68C220.42 69.38 220.08 70.76 219.75 72.14C218.2 69.4 218.63 65.31 218.91 62.25C221.35 61.25 223.16 61.01 225.15 62.75ZM233 62.25C232.52 62.93 231.56 63.06 231.3 63.52C230.06 65.7 232.69 69.18 230.25 72.14C229.09 69.7 228.97 66.7 229.75 64C228.78 63.42 227.82 62.83 226.85 62.25C229.02 61.38 231.03 61.04 233 62.25ZM240.75 61.65C242.72 62.69 243.28 65.66 243 67.75C243.88 67.75 244.77 67.75 245.65 67.75C244.83 69.98 245.48 71.67 242.85 71.75C242.05 69.68 241.46 67.42 242 65.25C239.48 65.25 238.85 63.69 240.75 61.65ZM251.25 61.65C252.69 63.04 253.26 64.4 253 66.25C254.67 67.61 255.45 70.36 254.75 72.25C254.17 71.26 253.58 70.27 253 69.27C251.92 69.27 250.83 69.27 249.75 69.27C249.25 70.23 248.75 71.18 248.25 72.13C247.45 69.69 248.37 68.08 248.89 65.75C250.64 66.36 249.94 66.53 250.75 68C252.41 67.39 251.91 66.29 252 64.67C251.16 64.67 250.32 64.67 249.48 64.67C250.07 63.66 250.66 62.66 251.25 61.65ZM264.28 62.75C264.28 63.58 264.28 64.42 264.28 65.25C263.93 66.08 263.59 66.92 263.25 67.75C263.84 68.92 264.44 70.08 265.03 71.25C262.52 71.98 261.94 70.84 261.5 68.11C260.58 68.11 259.67 68.11 258.75 68.11C259.02 69.88 258.71 70.66 257.75 72.15C256.26 69.22 256.9 65.48 257.03 62.25C259.63 61.13 261.85 61.21 264.28 62.75ZM273.65 62.75C271.93 63.08 270.22 63.42 268.5 63.75C269.43 66.49 271 64.94 272.5 66.75C271.5 68.21 270.68 67.97 268.88 67.75C268.88 68.67 268.88 69.58 268.88 70.5C270.39 70.73 271.57 70.37 273 71.25C271.78 73.12 269.09 72.63 266.94 72.11C266.94 68.83 266.94 65.54 266.94 62.25C269.42 61.21 271.63 60.96 273.65 62.75ZM70.25 61.91C72.41 64.22 72.04 69.26 70.75 72.09C68.64 69.8 69.06 64.75 70.25 61.91ZM27.5 63.41C26.66 63.41 25.82 63.41 24.97 63.41C24.97 64.5 24.97 65.59 24.97 66.67C25.82 66.67 26.66 66.67 27.5 66.67C27.92 65.95 28.33 65.22 28.75 64.5C28.33 64.14 27.92 63.78 27.5 63.41ZM37.49 63.38C36.36 63.38 35.24 63.38 34.11 63.38C34.11 64.25 34.11 65.12 34.11 65.99C35.24 65.99 36.36 65.99 37.49 65.99C37.49 65.12 37.49 64.25 37.49 63.38ZM214 63.34C213 63.34 212 63.34 211 63.34C210.33 64.81 209.67 66.28 209 67.75C209.67 68.74 210.33 69.72 211 70.71C212 70.71 213 70.71 214 70.71C215.5 69.17 215.55 64.82 214 63.34ZM262.42 65.86C262.45 63.24 261.25 63.17 258.8 63.5C258.8 64.29 258.8 65.07 258.8 65.86C260 65.86 261.21 65.86 262.42 65.86ZM46.01 64.5C45.34 65.08 44.67 65.67 44 66.25C44.73 67.47 44.75 67.87 46.01 67.5C46.01 66.5 46.01 65.5 46.01 64.5ZM111.07 64.5C111.07 65.58 111.07 66.67 111.07 67.75C111.63 67.67 112.19 67.58 112.75 67.5C112.9 66.02 112.18 65.27 111.07 64.5ZM130.07 65C130.07 65.92 130.07 66.83 130.07 67.75C130.46 67.83 130.86 67.92 131.25 68C132.09 66.92 132.07 66.45 131.5 65.25C131.02 65.17 130.55 65.08 130.07 65ZM237.25 67C238.46 67.94 238.74 67.71 240.15 67.25C239.82 68.75 239.48 70.25 239.15 71.75C236.59 71.73 235.89 69.08 237.25 67Z" fill="#707070" fill-rule="evenodd" stroke="#707070" stroke-width="0.25" stroke-linejoin="round"/>
</svg>