<?xml version="1.0" encoding="UTF-8"?>
<svg xmlns="http://www.w3.org/2000/svg" viewBox="0 0 229 75" width="229" height="75">
<path d="M0.13 0.13C76.38 0.13 152.63 0.13 228.88 0.13C228.88 25.04 228.88 49.96 228.88 74.88C152.63 74.88 76.38 74.88 0.13 74.88C0.13 49.96 0.13 25.04 0.13 0.13ZM43.75 17.75C41.63 14.92 38.33 13.41 34.89 12.78C23.24 10.65 12.93 19.53 12.47 31.25C11.88 46.33 31.38 59.21 43.25 46.81C43.31 45.99 41.15 47.52 40.23 47.94C37.6 49.11 34.62 49.49 31.73 49.21C24.62 48.51 19.27 43.3 17.17 36.67C14.51 28.27 20 17.73 28.33 15.17C34.23 13.35 38.71 15.91 43.75 17.75ZM31.37 15.65C9.72 19.89 15.73 52.53 37.22 47.89C56.15 43.8 50.57 11.88 31.37 15.65ZM130.75 16.7C130.42 19.55 130.08 22.4 129.75 25.25C128.06 24.49 126.7 23.62 124.75 23.64C111.15 23.8 115.37 51.32 129.75 42.57C131.05 43.75 131.39 44.08 133.25 43.77C134.8 38.23 133.54 28.74 133.54 22.75C133.54 19.98 134.58 16 130.75 16.7ZM216.35 43.94C217.07 37.85 216.54 31.4 216.54 25.25C216.54 23 217.23 19.43 216.4 17.33C215.83 15.89 214.17 16.51 213.07 16.75C213.07 25.81 213.07 34.87 213.07 43.94C214.16 43.94 215.26 43.94 216.35 43.94ZM184.75 17.58C183.92 18.08 183.08 18.57 182.25 19.06C181.12 24.34 183.4 21.64 179.39 24.75C179.83 26.36 180.38 26.57 181.84 27.25C182.46 32.92 179.04 46.7 188.99 43.75C188.97 39.11 186.71 42.49 185.48 39.73C184.57 37.7 184.97 29.56 185.43 27.25C187.25 26.71 188.67 26.86 188.75 24.6C187.69 24.32 186.63 24.03 185.57 23.75C185.29 21.69 185.02 19.64 184.75 17.58ZM31.85 20.2C46.42 17.43 50.39 41.46 34.51 43.74C20.89 45.7 17.51 22.91 31.85 20.2ZM155.75 34.99C157.18 23.92 142.91 18.68 138.72 28.95C136.96 33.27 137.41 39.82 141.5 42.74C146.15 46.07 154.46 44.37 155.49 38.25C152.02 36.94 152.35 39.67 149.67 40.92C145.27 42.97 141.41 39.28 141.25 34.99C146.08 34.99 150.92 34.99 155.75 34.99ZM175.75 43.97C176.53 41.62 176.15 38.76 176.15 36.25C176.15 31.47 177.2 24.57 170.84 23.79C168.01 23.45 166.01 24.22 163.75 25.81C162.41 24.34 162.59 23.81 160.18 24.25C160.18 30.8 160.18 37.36 160.18 43.91C161.18 43.91 162.19 43.91 163.2 43.91C164.05 39.12 160.65 25.96 169.15 26.7C176.7 27.37 170.51 40.21 173.11 43.6C173.66 44.32 175.01 43.99 175.75 43.97ZM208.91 43.75C207.89 39.22 209.41 28.64 206.71 25.54C202.95 21.23 192.29 23.41 191.75 29.45C192.56 29.87 193.64 30.41 194.6 29.84C195.42 29.34 195.54 27.85 196.48 27.26C200 25.04 204.12 26.87 204.59 30.75C200.4 34.19 190.54 30.81 190.95 39.25C191.34 47.22 200.7 43.57 204.75 42.12C205.65 44.14 206.81 44.29 208.91 43.75ZM57.75 25.47C56.7 24.29 56.27 24.01 54.63 24.25C52.76 28.44 54.14 39.72 54.14 44.75C54.14 47.05 53.71 49.68 54.75 51.74C55.69 51.74 56.62 51.74 57.56 51.74C57.56 48.91 57.56 46.08 57.56 43.25C60.76 43.43 62.96 45.4 66.46 43.7C73.09 40.47 73.35 26.93 66.09 24.21C62.82 22.99 60.6 24.57 57.75 25.47ZM92.2 35.04C94.26 23.72 78.85 19.07 75.15 29.37C73.62 33.62 74.11 39.91 77.93 42.8C82.55 46.3 90.82 44.57 92.25 38.54C88.75 36.58 88.29 40.61 85.2 41.45C80.99 42.59 77.85 38.92 78.17 35.04C82.85 35.04 87.52 35.04 92.2 35.04ZM100.25 25.81C98.99 24.39 98.9 23.98 96.81 24.25C96.81 30.83 96.81 37.4 96.81 43.98C97.58 44 99.26 44.39 99.83 43.59C102.35 40.02 96.3 27.91 104.25 26.97C112.68 25.97 108.69 38.95 109.81 43.75C110.72 43.95 112.29 44.49 112.74 43.2C113.36 41.41 112.71 38.17 112.71 36.25C112.71 26.8 111.22 20.24 100.25 25.81ZM61.88 26.68C69.9 25.36 70.29 41.46 62.67 41.76C55.5 42.04 55.33 27.75 61.88 26.68ZM88.76 31.98C85.25 31.98 81.75 31.98 78.25 31.98C78.61 25.2 88.85 25.06 88.76 31.98ZM124.31 26.61C132.16 25.42 133.07 40.83 125.74 41.45C118.35 42.08 117.5 27.65 124.31 26.61ZM152.25 31.93C148.73 31.93 145.22 31.93 141.7 31.93C141.8 24.96 151.97 24.87 152.25 31.93ZM204.43 34.75C204.8 40.88 196.83 45.12 194.42 38.75C195.39 35.29 201.27 33.99 204.43 34.75ZM149.93 49.25C148.66 48.41 147.85 48.6 146.52 49.25C145.83 50.58 145.15 51.92 144.46 53.25C146.74 55.88 144.52 59.89 146.75 62.15C148.02 58.16 145.86 56.24 149.14 53.25C148.54 52.58 147.94 51.92 147.35 51.25C148.21 50.58 149.07 49.92 149.93 49.25ZM158.98 53.25C158.11 52.08 157.25 50.92 156.39 49.75C155.78 50.92 155.17 52.08 154.56 53.25C155.87 55.12 154.9 65.2 159.07 61.75C156.49 58.7 156.06 56.09 158.98 53.25ZM124.09 54.75C122.84 51.03 117.88 51.74 116.86 55.25C118 58.22 122.28 57.48 122.75 60.16C120.63 62.18 119.1 60.05 117.25 59.25C115.87 63.88 126.84 63.92 123.93 57.75C122.22 56.5 119.55 56.58 118.47 54.75C120.55 53.24 122.03 54.92 124.09 54.75ZM134.37 52.22C128.58 53 129.16 63.11 135.25 62.62C141.25 62.14 140.4 51.42 134.37 52.22ZM190.75 62.24C191.19 60.17 191.84 55.19 190.29 53.46C188.3 51.23 183.23 51.97 183.25 55.17C185.47 55.32 186.55 52.9 189.02 54.75C187.95 58.32 182.4 55.5 182.53 60.75C184.66 63.73 187.71 62.08 190.75 62.24ZM202.79 53.25C201.37 51.71 199.9 52.84 198.05 52.75C197.09 54.83 196.75 60.49 198.25 62.33C200.12 60.86 198.61 57.9 199.47 55.76C200.18 53.98 201.78 54.44 202.79 53.25ZM216.34 58.02C216.59 53.13 211 49.36 208.17 54.39C203.73 62.29 216.31 65.77 215.83 59.25C213.4 59.46 210.41 63.97 209.51 58.02C211.79 58.02 214.06 58.02 216.34 58.02ZM165.25 52.68C163.67 54.11 166.24 61.47 168.25 62.32C169.08 60.34 169.92 58.36 170.75 56.38C171.58 58.32 172.42 60.26 173.25 62.2C175.68 62.15 177.4 54.56 176.75 52.66C174.9 53.75 174.85 56.88 173.75 58.77C172.92 56.73 172.08 54.68 171.25 52.64C168.95 53.45 169.27 56.84 167.75 58.66C166.92 56.67 166.08 54.68 165.25 52.68ZM133.33 54.25C138.2 53.36 139.31 59.52 136.07 60.77C131.78 62.41 131.13 56.55 133.33 54.25ZM213.66 54.25C213.81 54.93 213.95 55.61 214.1 56.28C212.62 56.28 211.14 56.28 209.66 56.28C210.29 53.95 211.3 53.8 213.66 54.25ZM189.03 58.25C188.81 60.75 186.21 62.18 184.25 60.1C184.74 57.92 187.18 57.87 189.03 58.25Z" fill="#feffff" fill-rule="evenodd" stroke="#feffff" stroke-width="0.25" stroke-linejoin="round"/>
<path d="M31.37 15.65C50.57 11.88 56.15 43.8 37.22 47.89C15.73 52.53 9.72 19.89 31.37 15.65ZM31.85 20.2C17.51 22.91 20.89 45.7 34.51 43.74C50.39 41.46 46.42 17.43 31.85 20.2ZM57.75 25.47C60.6 24.57 62.82 22.99 66.09 24.21C73.35 26.93 73.09 40.47 66.46 43.7C62.96 45.4 60.76 43.43 57.56 43.25C57.56 46.08 57.56 48.91 57.56 51.74C56.62 51.74 55.69 51.74 54.75 51.74C53.71 49.68 54.14 47.05 54.14 44.75C54.14 39.72 52.76 28.44 54.63 24.25C56.27 24.01 56.7 24.29 57.75 25.47ZM92.2 35.04C87.52 35.04 82.85 35.04 78.17 35.04C77.85 38.92 80.99 42.59 85.2 41.45C88.29 40.61 88.75 36.58 92.25 38.54C90.82 44.57 82.55 46.3 77.93 42.8C74.11 39.91 73.62 33.62 75.15 29.37C78.85 19.07 94.26 23.72 92.2 35.04ZM100.25 25.81C111.22 20.24 112.71 26.8 112.71 36.25C112.71 38.17 113.36 41.41 112.74 43.2C112.29 44.49 110.72 43.95 109.81 43.75C108.69 38.95 112.68 25.97 104.25 26.97C96.3 27.91 102.35 40.02 99.83 43.59C99.26 44.39 97.58 44 96.81 43.98C96.81 37.4 96.81 30.83 96.81 24.25C98.9 23.98 98.99 24.39 100.25 25.81ZM61.88 26.68C55.33 27.75 55.5 42.04 62.67 41.76C70.29 41.46 69.9 25.36 61.88 26.68ZM88.76 31.98C88.85 25.06 78.61 25.2 78.25 31.98C81.75 31.98 85.25 31.98 88.76 31.98ZM149.93 49.25C149.07 49.92 148.21 50.58 147.35 51.25C147.94 51.92 148.54 52.58 149.14 53.25C145.86 56.24 148.02 58.16 146.75 62.15C144.52 59.89 146.74 55.88 144.46 53.25C145.15 51.92 145.83 50.58 146.52 49.25C147.85 48.6 148.66 48.41 149.93 49.25ZM158.98 53.25C156.06 56.09 156.49 58.7 159.07 61.75C154.9 65.2 155.87 55.12 154.56 53.25C155.17 52.08 155.78 50.92 156.39 49.75C157.25 50.92 158.11 52.08 158.98 53.25ZM124.09 54.75C122.03 54.92 120.55 53.24 118.47 54.75C119.55 56.58 122.22 56.5 123.93 57.75C126.84 63.92 115.87 63.88 117.25 59.25C119.1 60.05 120.63 62.18 122.75 60.16C122.28 57.48 118 58.22 116.86 55.25C117.88 51.74 122.84 51.03 124.09 54.75ZM134.37 52.22C140.4 51.42 141.25 62.14 135.25 62.62C129.16 63.11 128.58 53 134.37 52.22ZM190.75 62.24C187.71 62.08 184.66 63.73 182.53 60.75C182.4 55.5 187.95 58.32 189.02 54.75C186.55 52.9 185.47 55.32 183.25 55.17C183.23 51.97 188.3 51.23 190.29 53.46C191.84 55.19 191.19 60.17 190.75 62.24ZM202.79 53.25C201.78 54.44 200.18 53.98 199.47 55.76C198.61 57.9 200.12 60.86 198.25 62.33C196.75 60.49 197.09 54.83 198.05 52.75C199.9 52.84 201.37 51.71 202.79 53.25ZM216.34 58.02C214.06 58.02 211.79 58.02 209.51 58.02C210.41 63.97 213.4 59.46 215.83 59.25C216.31 65.77 203.73 62.29 208.17 54.39C211 49.36 216.59 53.13 216.34 58.02ZM165.25 52.68C166.08 54.68 166.92 56.67 167.75 58.66C169.27 56.84 168.95 53.45 171.25 52.64C172.08 54.68 172.92 56.73 173.75 58.77C174.85 56.88 174.9 53.75 176.75 52.66C177.4 54.56 175.68 62.15 173.25 62.2C172.42 60.26 171.58 58.32 170.75 56.38C169.92 58.36 169.08 60.34 168.25 62.32C166.24 61.47 163.67 54.11 165.25 52.68ZM133.33 54.25C131.13 56.55 131.78 62.41 136.07 60.77C139.31 59.52 138.2 53.36 133.33 54.25ZM213.66 54.25C211.3 53.8 210.29 53.95 209.66 56.28C211.14 56.28 212.62 56.28 214.1 56.28C213.95 55.61 213.81 54.93 213.66 54.25ZM189.03 58.25C187.18 57.87 184.74 57.92 184.25 60.1C186.21 62.18 188.81 60.75 189.03 58.25Z" fill="#08173e" fill-rule="evenodd" stroke="#08173e" stroke-width="0.25" stroke-linejoin="round"/>
<path d="M43.75 17.75C38.71 15.91 34.23 13.35 28.33 15.17C20 17.73 14.51 28.27 17.17 36.67C19.27 43.3 24.62 48.51 31.73 49.21C34.62 49.49 37.6 49.11 40.23 47.94C41.15 47.52 43.31 45.99 43.25 46.81C31.38 59.21 11.88 46.33 12.47 31.25C12.93 19.53 23.24 10.65 34.89 12.78C38.33 13.41 41.63 14.92 43.75 17.75ZM130.75 16.7C134.58 16 133.54 19.98 133.54 22.75C133.54 28.74 134.8 38.23 133.25 43.77C131.39 44.08 131.05 43.75 129.75 42.57C115.37 51.32 111.15 23.8 124.75 23.64C126.7 23.62 128.06 24.49 129.75 25.25C130.08 22.4 130.42 19.55 130.75 16.7ZM216.35 43.94C215.26 43.94 214.16 43.94 213.07 43.94C213.07 34.87 213.07 25.81 213.07 16.75C214.17 16.51 215.83 15.89 216.4 17.33C217.23 19.43 216.54 23 216.54 25.25C216.54 31.4 217.07 37.85 216.35 43.94ZM184.75 17.58C185.02 19.64 185.29 21.69 185.57 23.75C186.63 24.03 187.69 24.32 188.75 24.6C188.67 26.86 187.25 26.71 185.43 27.25C184.97 29.56 184.57 37.7 185.48 39.73C186.71 42.49 188.97 39.11 188.99 43.75C179.04 46.7 182.46 32.92 181.84 27.25C180.38 26.57 179.83 26.36 179.39 24.75C183.4 21.64 181.12 24.34 182.25 19.06C183.08 18.57 183.92 18.08 184.75 17.58ZM155.75 34.99C150.92 34.99 146.08 34.99 141.25 34.99C141.41 39.28 145.27 42.97 149.67 40.92C152.35 39.67 152.02 36.94 155.49 38.25C154.46 44.37 146.15 46.07 141.5 42.74C137.41 39.82 136.96 33.27 138.72 28.95C142.91 18.68 157.18 23.92 155.75 34.99ZM175.75 43.97C175.01 43.99 173.66 44.32 173.11 43.6C170.51 40.21 176.7 27.37 169.15 26.7C160.65 25.96 164.05 39.12 163.2 43.91C162.19 43.91 161.18 43.91 160.18 43.91C160.18 37.36 160.18 30.8 160.18 24.25C162.59 23.81 162.41 24.34 163.75 25.81C166.01 24.22 168.01 23.45 170.84 23.79C177.2 24.57 176.15 31.47 176.15 36.25C176.15 38.76 176.53 41.62 175.75 43.97ZM208.91 43.75C206.81 44.29 205.65 44.14 204.75 42.12C200.7 43.57 191.34 47.22 190.95 39.25C190.54 30.81 200.4 34.19 204.59 30.75C204.12 26.87 200 25.04 196.48 27.26C195.54 27.85 195.42 29.34 194.6 29.84C193.64 30.41 192.56 29.87 191.75 29.45C192.29 23.41 202.95 21.23 206.71 25.54C209.41 28.64 207.89 39.22 208.91 43.75ZM124.31 26.61C117.5 27.65 118.35 42.08 125.74 41.45C133.07 40.83 132.16 25.42 124.31 26.61ZM152.25 31.93C151.97 24.87 141.8 24.96 141.7 31.93C145.22 31.93 148.73 31.93 152.25 31.93ZM204.43 34.75C201.27 33.99 195.39 35.29 194.42 38.75C196.83 45.12 204.8 40.88 204.43 34.75Z" fill="#245b5c" fill-rule="evenodd" stroke="#245b5c" stroke-width="0.25" stroke-linejoin="round"/>
</svg>