<?xml version="1.0" encoding="UTF-8"?>
<svg xmlns="http://www.w3.org/2000/svg" viewBox="0 0 727 275" width="727" height="275">
<path d="M0.13 0.13C242.38 0.13 484.63 0.13 726.88 0.13C726.88 91.71 726.88 183.29 726.88 274.88C484.63 274.88 242.38 274.88 0.13 274.88C0.13 183.29 0.13 91.71 0.13 0.13ZM314.75 70.84C318.56 29.55 246.67 22.6 236.25 58.49C235.23 62 234.84 65.6 234.97 69.25C235.8 94.35 262.83 96.24 281.34 100.84C293.32 103.82 304.89 106.81 304.16 121.75C303.18 142.09 273.05 145.04 258.89 137.84C252.54 134.61 247.97 128.97 246.24 122.06C245.77 120.19 245.93 118.31 245.32 116.44C240.85 116.44 236.38 116.44 231.91 116.44C229.57 128.91 239.15 142.5 249.61 148.18C268.6 158.5 304.56 156.99 314.87 134.64C316.71 130.63 317.9 126.16 317.97 121.75C318.04 117.92 317.94 114.06 316.82 110.38C310.91 91.02 288.51 89.53 272.11 85.2C262.29 82.61 249.2 80.44 248.78 67.75C248.32 53.9 261.76 49.15 273.25 48.51C282.76 47.98 294.27 51.22 298.83 60.39C300.51 63.74 300.7 67.23 301.25 70.84C305.75 70.84 310.25 70.84 314.75 70.84ZM66.36 41.54C64.77 42 63.26 41.87 62.45 43.42C60.03 42.12 56.36 45.82 54.8 47.57C49.44 53.6 48.11 61.69 51.15 69.14C53.56 75.04 57.74 80.36 60.77 85.95C66.8 97.09 73.36 108 79.8 118.92C84.82 127.44 89.74 136.03 94.6 144.65C96.5 148 98.21 151.8 100.75 154.64C100.57 149.87 96.13 139.75 94.3 134.91C88.91 120.62 84.75 105.81 79.86 91.34C77 82.86 72.57 74.39 78.2 65.93C82.7 59.16 90.62 59.04 97.75 57.45C99.88 56.97 103.63 57.3 105 55.53C110.69 54.61 116.37 53.68 122.06 52.75C132.17 53.67 142.19 56.27 152.25 57.99C158.05 58.99 163.62 59.93 167.76 64.48C175.25 72.72 170.24 82.96 167.12 91.83C162.13 106 157.44 120.33 152.82 134.62C150.72 141.11 147.09 148.07 146.14 154.75C147.74 154.4 149.33 150.1 150.27 148.5C153.6 142.83 156.83 137.08 160.19 131.42C170.1 114.74 179.41 97.71 189.3 81.04C194.67 71.98 200.97 62.83 195.62 52.12C189.81 40.47 177.41 41.12 166.25 41.12C142.75 41.12 119.25 41.12 95.75 41.12C89.08 41.12 82.42 41.12 75.75 41.12C72.91 41.12 68.89 40.45 66.36 41.54ZM679.12 45.52C674.65 45.52 670.19 45.52 665.72 45.52C665.72 49.54 665.72 53.55 665.72 57.57C670.19 57.57 674.65 57.57 679.12 57.57C679.12 53.55 679.12 49.54 679.12 45.52ZM487.86 152.48C489.53 144.13 488.2 134.29 488.2 125.75C488.2 103.31 492.14 71.32 462.74 66.08C458.87 65.39 454.64 65.28 450.74 65.81C445.18 66.56 439.92 68.8 435.49 72.24C433.84 73.51 432.77 75.2 430.91 75.98C430.91 73.34 430.91 70.7 430.91 68.06C427.66 67.04 420.4 66.79 417.3 68.25C417.3 96.08 417.3 123.92 417.3 151.75C419.99 153.56 427.69 152.98 430.87 152.25C432.53 148.2 431.34 141.65 431.34 137.25C431.34 129.42 431.34 121.58 431.34 113.75C431.34 107.82 430.57 101.27 431.73 95.44C433.74 85.33 443.14 78.13 453.25 78.02C464.93 77.89 473.66 86.09 474.62 97.75C475.67 110.43 474.77 123.53 474.77 136.25C474.77 141.49 474.04 147.38 475.15 152.48C479.39 152.48 483.63 152.48 487.86 152.48ZM409.25 113.83C410.77 110.36 409.09 104.61 408.25 101.03C405.02 87.28 396.79 75.11 383.52 69.25C359.89 58.81 333.3 73.27 326.14 97.34C316.87 128.53 342.01 157.33 373.75 153.96C385.23 152.74 396.04 146.95 402.37 137.12C404.34 134.07 407.47 129.86 406.78 126.19C402.31 126.19 397.84 126.19 393.37 126.19C389.47 131.87 386.18 136.93 379.55 139.75C360.93 147.67 339.63 133.77 338.64 113.83C362.18 113.83 385.71 113.83 409.25 113.83ZM565.16 92.01C566.21 82.48 557.36 73.55 549.61 69.65C533.77 61.68 505.74 64.75 499.1 83.83C498.19 86.44 497.88 88.99 497.93 91.75C498.23 111.28 521.71 113.13 536.25 115.41C542.78 116.43 553.46 118.54 554.02 126.75C554.61 135.28 546.52 139.52 539.46 141.24C526.83 144.29 512.61 138.85 508.75 125.96C504.24 125.96 499.73 125.96 495.23 125.96C495.78 158.91 557.1 165.45 565.98 135.23C566.81 132.39 567.16 129.71 567.15 126.75C567.09 107.26 548.47 103.34 532.73 101.17C526.97 100.38 512.71 99.1 511.65 91.72C510.55 84.05 519.13 80.09 525.23 78.91C537.08 76.61 547.4 80.27 551.55 92.01C556.08 92.01 560.62 92.01 565.16 92.01ZM657.75 113.25C657.67 104.68 656.06 95.91 651.9 88.34C640.49 67.57 613.46 59.09 593.01 72.28C582.24 79.22 575.99 90.17 573.23 102.41C567.79 126.54 587.1 152.81 611.75 154.23C627.09 155.12 641.23 150.41 650.34 137.59C652.47 134.58 655.01 130.49 655.35 126.75C653.11 126.25 643.38 125.79 641.48 126.75C639.67 127.66 638.31 131.56 636.92 133.15C633.87 136.63 629.9 139.28 625.53 140.74C610.57 145.76 594.69 137.49 588.91 123.31C587.77 120.53 586.38 117.3 586.75 114.24C592.26 113.14 598.62 113.93 604.25 113.93C615.58 113.93 626.92 113.93 638.25 113.93C642.5 113.93 654.63 115.18 657.75 113.25ZM679.17 68.02C674.67 68.02 670.17 68.02 665.67 68.02C665.67 96.2 665.67 124.37 665.67 152.55C670.17 152.55 674.67 152.55 679.17 152.55C679.17 124.37 679.17 96.2 679.17 68.02ZM94.47 69.21C87.43 68.23 83.77 77.85 85.84 83.37C87.22 87.03 89.76 90.59 91.8 93.92C95.24 99.54 98.33 105.38 101.69 111.06C104.97 116.59 107.62 123.18 111.75 128.02C111.71 124.25 109.42 120.14 108.21 116.61C106.02 110.22 104.1 103.77 101.82 97.39C100.12 92.62 97.33 86.95 100.42 82.17C103.75 77.03 109.94 79.44 114.08 76.47C116.73 76.03 119.38 75.59 122.03 75.16C126.12 75.41 130.12 75.28 134.28 76.42C138.21 77.49 143 77.01 146.53 79.23C152.46 82.96 151.22 88.48 149.38 94.2C146.96 101.73 144.29 109.15 141.84 116.63C140.91 119.46 138.91 123.01 139.25 125.96C142.51 122.26 145.07 116.56 147.34 112.11C151.41 104.15 156.32 96.32 160.91 88.68C163.9 83.71 166.21 78.97 162.79 73.41C159.32 67.77 151.26 68.98 145.75 68.98C134.42 68.98 123.08 68.98 111.75 68.98C106.25 68.98 99.83 68.06 94.47 69.21ZM394.22 101.21C375.99 101.21 357.76 101.21 339.52 101.21C340.82 87.23 357.6 76.07 370.95 78.27C382.07 80.11 392.38 90.08 394.22 101.21ZM642.25 100.97C639.09 102.93 632.03 101.63 628.25 101.63C619.08 101.63 609.92 101.63 600.75 101.63C596.79 101.63 591.49 102.53 587.75 101.23C587.72 96.83 591.12 91.92 593.91 88.65C605.92 74.61 624.06 75.15 636.12 88.64C638.83 91.68 642.2 96.78 642.25 100.97ZM110 85.33C106.86 85.6 105.18 89.08 106.16 92.13C107.81 97.24 111.94 102.05 114.58 106.67C115.74 108.71 116.46 111.09 118.25 112.62C118.12 107.1 111.09 96.92 113.31 92.04C114.55 89.33 117.86 90.27 119.5 88.45C121.33 88.24 123.17 88.02 125 87.81C127.45 87.37 129.48 87.49 131.85 88.32C133.44 88.89 135.07 88.26 136.56 88.74C144.09 91.17 137.36 102.49 136.25 107.06C139.54 103.64 141.26 98.03 143.72 93.96C144.78 92.21 146.43 91.29 145.37 88.84C144.32 86.44 141.03 85.44 138.75 85.44C133.66 85.42 116.64 84.32 113 85.34C112 85.34 111 85.33 110 85.33ZM555.74 187.14C553.84 187.14 551.95 187.14 550.05 187.14C550.05 204.13 550.05 221.12 550.05 238.11C551.95 238.11 553.84 238.11 555.74 238.11C555.74 221.12 555.74 204.13 555.74 187.14ZM679.17 187.09C677.46 187.09 675.76 187.09 674.05 187.09C673.52 191.51 675.28 204.73 673.25 207.57C670.35 205.34 667.86 202.91 664.11 202.24C652.83 200.2 643.83 210.09 643.84 220.75C643.86 237.33 661.29 244.71 673.25 233.4C673.58 235 673.92 236.61 674.25 238.21C675.89 238.21 677.53 238.21 679.17 238.21C679.17 221.17 679.17 204.13 679.17 187.09ZM542.94 205.06C541.29 193.15 525.31 186.81 514.89 190.2C503.09 194.05 497.26 205.38 497.94 217.25C498.7 230.53 511.82 240.65 524.72 238.84C530.93 237.97 543.35 230.98 542.75 223.51C536.42 221.39 534.73 229.11 529.84 231.59C518.4 237.38 505.92 229.89 503.52 217.74C499.43 197.05 529.43 184.85 537.26 205.06C539.15 205.06 541.05 205.06 542.94 205.06ZM578.81 202.21C556.4 204.66 560.21 242.81 584.22 238.85C606.83 235.12 602.41 199.64 578.81 202.21ZM611.93 203.04C610.24 203.04 608.54 203.04 606.84 203.04C606.09 207.07 606.63 211.63 606.63 215.75C606.63 225.84 605.91 238.87 619.75 239.11C624.74 239.19 626.4 236.39 630.25 235.25C631.56 238.81 631.93 238.69 635.97 237.89C635.97 226.27 635.97 214.65 635.97 203.04C634.11 203.04 632.24 203.04 630.38 203.04C628.98 211.72 635.12 233.78 621.25 234.02C607.64 234.26 612.36 211.84 611.93 203.04ZM580.3 207.19C595.51 205.2 598.29 230.92 583.71 233.83C567.31 237.11 564.13 209.3 580.3 207.19ZM660.38 207.23C676.2 205.37 678.4 232.72 662.75 233.98C646.72 235.27 644.67 209.07 660.38 207.23Z" fill="#ffffff" fill-rule="evenodd" stroke="#ffffff" stroke-width="0.25" stroke-linejoin="round"/>
<path d="M314.75 70.84C310.25 70.84 305.75 70.84 301.25 70.84C300.7 67.23 300.51 63.74 298.83 60.39C294.27 51.22 282.76 47.98 273.25 48.51C261.76 49.15 248.32 53.9 248.78 67.75C249.2 80.44 262.29 82.61 272.11 85.2C288.51 89.53 310.91 91.02 316.82 110.38C317.94 114.06 318.04 117.92 317.97 121.75C317.9 126.16 316.71 130.63 314.87 134.64C304.56 156.99 268.6 158.5 249.61 148.18C239.15 142.5 229.57 128.91 231.91 116.44C236.38 116.44 240.85 116.44 245.32 116.44C245.93 118.31 245.77 120.19 246.24 122.06C247.97 128.97 252.54 134.61 258.89 137.84C273.05 145.04 303.18 142.09 304.16 121.75C304.89 106.81 293.32 103.82 281.34 100.84C262.83 96.24 235.8 94.35 234.97 69.25C234.84 65.6 235.23 62 236.25 58.49C246.67 22.6 318.56 29.55 314.75 70.84ZM66.36 41.54C68.73 44.05 78.77 44.7 82.44 45.27C87.94 46.14 93.3 47.78 98.75 48.65C106.41 49.87 114.62 50.57 122.06 52.75C116.37 53.68 110.69 54.61 105 55.53C102.89 54.44 92.91 51.67 90.16 51.09C87.25 50.49 83.04 50.24 81.25 47.85C78.64 48.88 66.03 44.56 62.45 43.42C63.26 41.87 64.77 42 66.36 41.54ZM679.12 45.52C679.12 49.54 679.12 53.55 679.12 57.57C674.65 57.57 670.19 57.57 665.72 57.57C665.72 53.55 665.72 49.54 665.72 45.52C670.19 45.52 674.65 45.52 679.12 45.52ZM487.86 152.48C483.63 152.48 479.39 152.48 475.15 152.48C474.04 147.38 474.77 141.49 474.77 136.25C474.77 123.53 475.67 110.43 474.62 97.75C473.66 86.09 464.93 77.89 453.25 78.02C443.14 78.13 433.74 85.33 431.73 95.44C430.57 101.27 431.34 107.82 431.34 113.75C431.34 121.58 431.34 129.42 431.34 137.25C431.34 141.65 432.53 148.2 430.87 152.25C427.69 152.98 419.99 153.56 417.3 151.75C417.3 123.92 417.3 96.08 417.3 68.25C420.4 66.79 427.66 67.04 430.91 68.06C430.91 70.7 430.91 73.34 430.91 75.98C432.77 75.2 433.84 73.51 435.49 72.24C439.92 68.8 445.18 66.56 450.74 65.81C454.64 65.28 458.87 65.39 462.74 66.08C492.14 71.32 488.2 103.31 488.2 125.75C488.2 134.29 489.53 144.13 487.86 152.48ZM409.25 113.83C385.71 113.83 362.18 113.83 338.64 113.83C339.63 133.77 360.93 147.67 379.55 139.75C386.18 136.93 389.47 131.87 393.37 126.19C397.84 126.19 402.31 126.19 406.78 126.19C407.47 129.86 404.34 134.07 402.37 137.12C396.04 146.95 385.23 152.74 373.75 153.96C342.01 157.33 316.87 128.53 326.14 97.34C333.3 73.27 359.89 58.81 383.52 69.25C396.79 75.11 405.02 87.28 408.25 101.03C409.09 104.61 410.77 110.36 409.25 113.83ZM565.16 92.01C560.62 92.01 556.08 92.01 551.55 92.01C547.4 80.27 537.08 76.61 525.23 78.91C519.13 80.09 510.55 84.05 511.65 91.72C512.71 99.1 526.97 100.38 532.73 101.17C548.47 103.34 567.09 107.26 567.15 126.75C567.16 129.71 566.81 132.39 565.98 135.23C557.1 165.45 495.78 158.91 495.23 125.96C499.73 125.96 504.24 125.96 508.75 125.96C512.61 138.85 526.83 144.29 539.46 141.24C546.52 139.52 554.61 135.28 554.02 126.75C553.46 118.54 542.78 116.43 536.25 115.41C521.71 113.13 498.23 111.28 497.93 91.75C497.88 88.99 498.19 86.44 499.1 83.83C505.74 64.75 533.77 61.68 549.61 69.65C557.36 73.55 566.21 82.48 565.16 92.01ZM657.75 113.25C654.63 115.18 642.5 113.93 638.25 113.93C626.92 113.93 615.58 113.93 604.25 113.93C598.62 113.93 592.26 113.14 586.75 114.24C586.38 117.3 587.77 120.53 588.91 123.31C594.69 137.49 610.57 145.76 625.53 140.74C629.9 139.28 633.87 136.63 636.92 133.15C638.31 131.56 639.67 127.66 641.48 126.75C643.38 125.79 653.11 126.25 655.35 126.75C655.01 130.49 652.47 134.58 650.34 137.59C641.23 150.41 627.09 155.12 611.75 154.23C587.1 152.81 567.79 126.54 573.23 102.41C575.99 90.17 582.24 79.22 593.01 72.28C613.46 59.09 640.49 67.57 651.9 88.34C656.06 95.91 657.67 104.68 657.75 113.25ZM679.17 68.02C679.17 96.2 679.17 124.37 679.17 152.55C674.67 152.55 670.17 152.55 665.67 152.55C665.67 124.37 665.67 96.2 665.67 68.02C670.17 68.02 674.67 68.02 679.17 68.02ZM122.03 75.16C119.38 75.59 116.73 76.03 114.08 76.47C112.27 74.73 102.61 71.73 100.25 72C99 71.39 97.75 70.77 96.5 70.16C99.62 69.59 112.82 72.96 116.75 73.86C118.63 74.3 120.61 73.96 122.03 75.16ZM394.22 101.21C392.38 90.08 382.07 80.11 370.95 78.27C357.6 76.07 340.82 87.23 339.52 101.21C357.76 101.21 375.99 101.21 394.22 101.21ZM642.25 100.97C642.2 96.78 638.83 91.68 636.12 88.64C624.06 75.15 605.92 74.61 593.91 88.65C591.12 91.92 587.72 96.83 587.75 101.23C591.49 102.53 596.79 101.63 600.75 101.63C609.92 101.63 619.08 101.63 628.25 101.63C632.03 101.63 639.09 102.93 642.25 100.97ZM113 85.34C116.75 85.89 120.5 86.45 124.25 87C124.5 87.27 124.75 87.54 125 87.81C123.17 88.02 121.33 88.24 119.5 88.45C118.75 88.3 118 88.15 117.25 88C116.33 87.03 116.67 87.15 115.5 87.25C113.67 86.61 111.83 85.97 110 85.33C111 85.33 112 85.34 113 85.34ZM555.74 187.14C555.74 204.13 555.74 221.12 555.74 238.11C553.84 238.11 551.95 238.11 550.05 238.11C550.05 221.12 550.05 204.13 550.05 187.14C551.95 187.14 553.84 187.14 555.74 187.14ZM679.17 187.09C679.17 204.13 679.17 221.17 679.17 238.21C677.53 238.21 675.89 238.21 674.25 238.21C673.92 236.61 673.58 235 673.25 233.4C661.29 244.71 643.86 237.33 643.84 220.75C643.83 210.09 652.83 200.2 664.11 202.24C667.86 202.91 670.35 205.34 673.25 207.57C675.28 204.73 673.52 191.51 674.05 187.09C675.76 187.09 677.46 187.09 679.17 187.09ZM542.94 205.06C541.05 205.06 539.15 205.06 537.26 205.06C529.43 184.85 499.43 197.05 503.52 217.74C505.92 229.89 518.4 237.38 529.84 231.59C534.73 229.11 536.42 221.39 542.75 223.51C543.35 230.98 530.93 237.97 524.72 238.84C511.82 240.65 498.7 230.53 497.94 217.25C497.26 205.38 503.09 194.05 514.89 190.2C525.31 186.81 541.29 193.15 542.94 205.06ZM578.81 202.21C602.41 199.64 606.83 235.12 584.22 238.85C560.21 242.81 556.4 204.66 578.81 202.21ZM611.93 203.04C612.36 211.84 607.64 234.26 621.25 234.02C635.12 233.78 628.98 211.72 630.38 203.04C632.24 203.04 634.11 203.04 635.97 203.04C635.97 214.65 635.97 226.27 635.97 237.89C631.93 238.69 631.56 238.81 630.25 235.25C626.4 236.39 624.74 239.19 619.75 239.11C605.91 238.87 606.63 225.84 606.63 215.75C606.63 211.63 606.09 207.07 606.84 203.04C608.54 203.04 610.24 203.04 611.93 203.04ZM580.3 207.19C564.13 209.3 567.31 237.11 583.71 233.83C598.29 230.92 595.51 205.2 580.3 207.19ZM660.38 207.23C644.67 209.07 646.72 235.27 662.75 233.98C678.4 232.72 676.2 205.37 660.38 207.23Z" fill="#010101" fill-rule="evenodd" stroke="#010101" stroke-width="0.25" stroke-linejoin="round"/>
<path d="M122.06 52.75C114.62 50.57 106.41 49.87 98.75 48.65C93.3 47.78 87.94 46.14 82.44 45.27C78.77 44.7 68.73 44.05 66.36 41.54C68.89 40.45 72.91 41.12 75.75 41.12C82.42 41.12 89.08 41.12 95.75 41.12C119.25 41.12 142.75 41.12 166.25 41.12C177.41 41.12 189.81 40.47 195.62 52.12C200.97 62.83 194.67 71.98 189.3 81.04C179.41 97.71 170.1 114.74 160.19 131.42C156.83 137.08 153.6 142.83 150.27 148.5C149.33 150.1 147.74 154.4 146.14 154.75C147.09 148.07 150.72 141.11 152.82 134.62C157.44 120.33 162.13 106 167.12 91.83C170.24 82.96 175.25 72.72 167.76 64.48C163.62 59.93 158.05 58.99 152.25 57.99C142.19 56.27 132.17 53.67 122.06 52.75ZM122.03 75.16C120.61 73.96 118.63 74.3 116.75 73.86C112.82 72.96 99.62 69.59 96.5 70.16C95.92 70.07 95.33 69.98 94.75 69.89C94.66 69.66 94.56 69.44 94.47 69.21C99.83 68.06 106.25 68.98 111.75 68.98C123.08 68.98 134.42 68.98 145.75 68.98C151.26 68.98 159.32 67.77 162.79 73.41C166.21 78.97 163.9 83.71 160.91 88.68C156.32 96.32 151.41 104.15 147.34 112.11C145.07 116.56 142.51 122.26 139.25 125.96C138.91 123.01 140.91 119.46 141.84 116.63C144.29 109.15 146.96 101.73 149.38 94.2C151.22 88.48 152.46 82.96 146.53 79.23C143 77.01 138.21 77.49 134.28 76.42C130.12 75.28 126.12 75.41 122.03 75.16ZM125 87.81C124.75 87.54 124.5 87.27 124.25 87C120.5 86.45 116.75 85.89 113 85.34C116.64 84.32 133.66 85.42 138.75 85.44C141.03 85.44 144.32 86.44 145.37 88.84C146.43 91.29 144.78 92.21 143.72 93.96C141.26 98.03 139.54 103.64 136.25 107.06C137.36 102.49 144.09 91.17 136.56 88.74C135.07 88.26 133.44 88.89 131.85 88.32C129.48 87.49 127.45 87.37 125 87.81Z" fill="#612367" fill-rule="evenodd" stroke="#612367" stroke-width="0.25" stroke-linejoin="round"/>
<path d="M62.45 43.42C66.03 44.56 78.64 48.88 81.25 47.85C83.04 50.24 87.25 50.49 90.16 51.09C92.91 51.67 102.89 54.44 105 55.53C103.63 57.3 99.88 56.97 97.75 57.45C90.62 59.04 82.7 59.16 78.2 65.93C72.57 74.39 77 82.86 79.86 91.34C84.75 105.81 88.91 120.62 94.3 134.91C96.13 139.75 100.57 149.87 100.75 154.64C98.21 151.8 96.5 148 94.6 144.65C89.74 136.03 84.82 127.44 79.8 118.92C73.36 108 66.8 97.09 60.77 85.95C57.74 80.36 53.56 75.04 51.15 69.14C48.11 61.69 49.44 53.6 54.8 47.57C56.36 45.82 60.03 42.12 62.45 43.42ZM94.47 69.21C94.56 69.44 94.66 69.66 94.75 69.89C95.33 69.98 95.92 70.07 96.5 70.16C97.75 70.77 99 71.39 100.25 72C102.61 71.73 112.27 74.73 114.08 76.47C109.94 79.44 103.75 77.03 100.42 82.17C97.33 86.95 100.12 92.62 101.82 97.39C104.1 103.77 106.02 110.22 108.21 116.61C109.42 120.14 111.71 124.25 111.75 128.02C107.62 123.18 104.97 116.59 101.69 111.06C98.33 105.38 95.24 99.54 91.8 93.92C89.76 90.59 87.22 87.03 85.84 83.37C83.77 77.85 87.43 68.23 94.47 69.21ZM110 85.33C111.83 85.97 113.67 86.61 115.5 87.25C116.67 87.15 116.33 87.03 117.25 88C118 88.15 118.75 88.3 119.5 88.45C117.86 90.27 114.55 89.33 113.31 92.04C111.09 96.92 118.12 107.1 118.25 112.62C116.46 111.09 115.74 108.71 114.58 106.67C111.94 102.05 107.81 97.24 106.16 92.13C105.18 89.08 106.86 85.6 110 85.33Z" fill="#3bb0c8" fill-rule="evenodd" stroke="#3bb0c8" stroke-width="0.25" stroke-linejoin="round"/>
</svg>