<?xml version="1.0" encoding="UTF-8"?>
<svg xmlns="http://www.w3.org/2000/svg" viewBox="0 0 640 312" width="640" height="312">
<path d="M0.13 0.13C213.38 0.13 426.63 0.13 639.88 0.13C639.88 104.04 639.88 207.96 639.88 311.88C426.63 311.88 213.38 311.88 0.13 311.88C0.13 207.96 0.13 104.04 0.13 0.13ZM536.6 134.49C537.43 131.93 546.33 127.58 549.06 125.79C559.1 119.21 567.3 111.24 566.45 98.25C564.31 65.62 512.35 67.12 498.42 90.75C504.2 95.75 509.98 100.75 515.76 105.75C519.19 104.09 521.57 100.24 524.95 98.23C532.72 93.62 545.18 98.54 537 107.73C533.19 112.01 527.89 114.72 523.33 118.08C515.02 124.21 506.22 129.77 498.03 136C498.03 142.52 498.03 149.04 498.03 155.56C521.09 155.56 544.15 155.56 567.21 155.56C567.21 148.54 567.21 141.51 567.21 134.49C557.01 134.49 546.8 134.49 536.6 134.49ZM490.14 74.82C469.13 74.82 448.13 74.82 427.12 74.82C427.12 81.63 427.12 88.44 427.12 95.25C436.99 95.58 446.87 95.92 456.74 96.25C451.15 100.75 445.55 105.25 439.95 109.75C441.05 113.67 442.15 117.59 443.25 121.51C448.73 123.51 455.39 120.62 460.98 122.75C463.75 123.8 466.6 126.4 465.55 129.73C462.59 139.16 448.28 134.33 442.48 130.74C440.49 129.51 438.92 127.6 436.75 126.78C431.49 132.1 426.23 137.43 420.97 142.75C423.32 146.55 428.2 149.11 431.97 151.3C444.78 158.76 464.51 159.87 477.76 153.03C488.9 147.27 495.61 133.72 490.76 121.46C488.54 115.85 483.88 111.79 478.51 109.26C476.6 108.36 474.14 108.13 472.58 106.75C478.44 102.42 484.29 98.08 490.14 93.75C490.14 87.44 490.14 81.13 490.14 74.82ZM117.93 75.25C103.32 80.42 88.71 85.58 74.1 90.75C74.1 101.9 74.1 113.05 74.1 124.19C69.01 124.19 63.92 124.19 58.84 124.19C58.84 135.12 58.84 146.04 58.84 156.97C63.87 156.97 68.89 156.97 73.92 156.97C76.57 183.57 64.72 219.4 94.53 234.25C98.05 236 101.82 237.36 105.75 237.92C112.25 238.84 118.73 238.76 125.25 238.12C132.63 237.4 142.72 235.83 148.8 231.25C149.37 226.42 144.86 214.06 143.43 208.77C142.81 206.46 142.76 203.07 141.25 201.21C135.33 201.51 129.96 206.13 123.72 203.56C118.59 201.45 117.93 196.16 117.93 191.25C117.93 180.1 116.6 167.98 118.19 156.97C127.82 156.97 137.45 156.97 147.07 156.97C147.07 146.18 147.07 135.38 147.07 124.59C137.36 124.34 127.65 124.09 117.93 123.84C117.93 107.64 117.93 91.45 117.93 75.25ZM333.53 74.87C318.88 74.87 304.23 74.87 289.58 74.87C289.58 128.88 289.58 182.89 289.58 236.9C304.22 236.9 318.86 236.9 333.51 236.9C333.51 232.64 333.51 228.38 333.51 224.12C335.84 224.57 342.9 231.92 346.6 233.67C358.24 239.17 371.88 239.53 384.22 235.94C428.18 223.14 433.04 150.6 397.66 126.08C383.46 116.23 364.04 113.34 348.02 120.29C344.39 121.86 341.05 124.21 338.11 126.85C336.59 128.21 335.46 130.32 333.53 130.75C333.53 112.12 333.53 93.49 333.53 74.87ZM272.27 236.9C273.72 233.16 272.79 227.76 272.79 223.75C272.79 214.42 272.79 205.08 272.79 195.75C272.79 181.84 274.75 158.04 270.83 145.36C261.73 115.92 225.77 114.48 200.65 117.79C191.49 119 182.47 121.5 173.73 124.47C170.48 125.58 165.52 126.41 163.05 128.75C166.62 138.25 170.18 147.74 173.75 157.24C177.61 157.2 184.49 153.46 188.59 152.31C197.78 149.75 208.27 147.88 217.74 150.08C223.65 151.45 231.93 158.37 229.35 165.25C224.46 166.19 218.74 165.44 213.75 165.44C193.05 165.44 164.12 165.21 156.76 189.55C155.44 193.92 154.87 198.69 155.08 203.25C155.31 208.26 156.25 213.46 158.21 218.08C166.75 238.28 194.33 243.05 213.08 235.79C219.66 233.25 224.24 229.2 229.25 224.45C229.56 228.6 229.87 232.75 230.19 236.9C244.21 236.9 258.24 236.9 272.27 236.9ZM351.88 150.69C381.7 145.61 386.27 201.36 355.75 203.42C328.01 205.3 325.32 155.21 351.88 150.69ZM229.47 187.25C232.34 198.11 225.65 206.95 215.14 209.32C208.89 210.73 200.3 210.16 197.32 203.43C196.56 201.71 196.33 199.61 196.4 197.75C196.86 184.78 211.58 186.99 220.75 186.99C223.6 186.99 226.7 186.65 229.47 187.25Z" fill="#ffffff" fill-rule="evenodd" stroke="#ffffff" stroke-width="0.25" stroke-linejoin="round"/>
<path d="M117.93 75.25C117.93 91.45 117.93 107.64 117.93 123.84C127.65 124.09 137.36 124.34 147.07 124.59C147.07 135.38 147.07 146.18 147.07 156.97C137.45 156.97 127.82 156.97 118.19 156.97C116.6 167.98 117.93 180.1 117.93 191.25C117.93 196.16 118.59 201.45 123.72 203.56C129.96 206.13 135.33 201.51 141.25 201.21C142.76 203.07 142.81 206.46 143.43 208.77C144.86 214.06 149.37 226.42 148.8 231.25C142.72 235.83 132.63 237.4 125.25 238.12C118.73 238.76 112.25 238.84 105.75 237.92C101.82 237.36 98.05 236 94.53 234.25C64.72 219.4 76.57 183.57 73.92 156.97C68.89 156.97 63.87 156.97 58.84 156.97C58.84 146.04 58.84 135.12 58.84 124.19C63.92 124.19 69.01 124.19 74.1 124.19C74.1 113.05 74.1 101.9 74.1 90.75C88.71 85.58 103.32 80.42 117.93 75.25ZM333.53 74.87C333.53 93.49 333.53 112.12 333.53 130.75C335.46 130.32 336.59 128.21 338.11 126.85C341.05 124.21 344.39 121.86 348.02 120.29C364.04 113.34 383.46 116.23 397.66 126.08C433.04 150.6 428.18 223.14 384.22 235.94C371.88 239.53 358.24 239.17 346.6 233.67C342.9 231.92 335.84 224.57 333.51 224.12C333.51 228.38 333.51 232.64 333.51 236.9C318.86 236.9 304.22 236.9 289.58 236.9C289.58 182.89 289.58 128.88 289.58 74.87C304.23 74.87 318.88 74.87 333.53 74.87ZM272.27 236.9C258.24 236.9 244.21 236.9 230.19 236.9C229.87 232.75 229.56 228.6 229.25 224.45C224.24 229.2 219.66 233.25 213.08 235.79C194.33 243.05 166.75 238.28 158.21 218.08C156.25 213.46 155.31 208.26 155.08 203.25C154.87 198.69 155.44 193.92 156.76 189.55C164.12 165.21 193.05 165.44 213.75 165.44C218.74 165.44 224.46 166.19 229.35 165.25C231.93 158.37 223.65 151.45 217.74 150.08C208.27 147.88 197.78 149.75 188.59 152.31C184.49 153.46 177.61 157.2 173.75 157.24C170.18 147.74 166.62 138.25 163.05 128.75C165.52 126.41 170.48 125.58 173.73 124.47C182.47 121.5 191.49 119 200.65 117.79C225.77 114.48 261.73 115.92 270.83 145.36C274.75 158.04 272.79 181.84 272.79 195.75C272.79 205.08 272.79 214.42 272.79 223.75C272.79 227.76 273.72 233.16 272.27 236.9ZM351.88 150.69C325.32 155.21 328.01 205.3 355.75 203.42C386.27 201.36 381.7 145.61 351.88 150.69ZM229.47 187.25C226.7 186.65 223.6 186.99 220.75 186.99C211.58 186.99 196.86 184.78 196.4 197.75C196.33 199.61 196.56 201.71 197.32 203.43C200.3 210.16 208.89 210.73 215.14 209.32C225.65 206.95 232.34 198.11 229.47 187.25Z" fill="#33b5e6" fill-rule="evenodd" stroke="#33b5e6" stroke-width="0.25" stroke-linejoin="round"/>
<path d="M536.6 134.49C546.8 134.49 557.01 134.49 567.21 134.49C567.21 141.51 567.21 148.54 567.21 155.56C544.15 155.56 521.09 155.56 498.03 155.56C498.03 149.04 498.03 142.52 498.03 136C506.22 129.77 515.02 124.21 523.33 118.08C527.89 114.72 533.19 112.01 537 107.73C545.18 98.54 532.72 93.62 524.95 98.23C521.57 100.24 519.19 104.09 515.76 105.75C509.98 100.75 504.2 95.75 498.42 90.75C512.35 67.12 564.31 65.62 566.45 98.25C567.3 111.24 559.1 119.21 549.06 125.79C546.33 127.58 537.43 131.93 536.6 134.49ZM490.14 74.82C490.14 81.13 490.14 87.44 490.14 93.75C484.29 98.08 478.44 102.42 472.58 106.75C474.14 108.13 476.6 108.36 478.51 109.26C483.88 111.79 488.54 115.85 490.76 121.46C495.61 133.72 488.9 147.27 477.76 153.03C464.51 159.87 444.78 158.76 431.97 151.3C428.2 149.11 423.32 146.55 420.97 142.75C426.23 137.43 431.49 132.1 436.75 126.78C438.92 127.6 440.49 129.51 442.48 130.74C448.28 134.33 462.59 139.16 465.55 129.73C466.6 126.4 463.75 123.8 460.98 122.75C455.39 120.62 448.73 123.51 443.25 121.51C442.15 117.59 441.05 113.67 439.95 109.75C445.55 105.25 451.15 100.75 456.74 96.25C446.87 95.92 436.99 95.58 427.12 95.25C427.12 88.44 427.12 81.63 427.12 74.82C448.13 74.82 469.13 74.82 490.14 74.82Z" fill="#22cb77" fill-rule="evenodd" stroke="#22cb77" stroke-width="0.25" stroke-linejoin="round"/>
</svg>